<?xml version="1.0" encoding="us-ascii" standalone="no"?><svg xmlns="http://www.w3.org/2000/svg" xmlns:xlink="http://www.w3.org/1999/xlink" contentStyleType="text/css" height="322px" preserveAspectRatio="none" style="width:974px;height:322px;background:#FFFFFF;" version="1.1" viewBox="0 0 974 322" width="974px" zoomAndPan="magnify"><defs/><g><!--class Alumno--><g id="elem_Alumno"><rect codeLine="1" fill="#F1F1F1" height="124.2717" id="Alumno" rx="2.5" ry="2.5" style="stroke:#181818;stroke-width:0.5;" width="246" x="336.5" y="7"/><ellipse cx="429.25" cy="23" fill="#ADD1B2" rx="11" ry="11" style="stroke:#181818;stroke-width:1.0;"/><path d="M432.2188,28.6406 Q431.6406,28.9375 431,29.0781 Q430.3594,29.2344 429.6563,29.2344 Q427.1563,29.2344 425.8281,27.5938 Q424.5156,25.9375 424.5156,22.8125 Q424.5156,19.6875 425.8281,18.0313 Q427.1563,16.375 429.6563,16.375 Q430.3594,16.375 431,16.5313 Q431.6563,16.6875 432.2188,16.9844 L432.2188,19.7031 Q431.5938,19.125 431,18.8594 Q430.4063,18.5781 429.7813,18.5781 Q428.4375,18.5781 427.75,19.6563 Q427.0625,20.7188 427.0625,22.8125 Q427.0625,24.9063 427.75,25.9844 Q428.4375,27.0469 429.7813,27.0469 Q430.4063,27.0469 431,26.7813 Q431.5938,26.5 432.2188,25.9219 L432.2188,28.6406 Z " fill="#000000"/><text fill="#000000" font-family="sans-serif" font-size="14" lengthAdjust="spacing" textLength="52" x="449.75" y="28.432">Alumno</text><line style="stroke:#181818;stroke-width:0.5;" x1="337.5" x2="581.5" y1="39" y2="39"/><ellipse cx="347.5" cy="54.034" fill="none" rx="3" ry="3" style="stroke:#038048;stroke-width:1.0;"/><text fill="#000000" font-family="sans-serif" font-size="14" lengthAdjust="spacing" textLength="132" x="356.5" y="57.9659">Inversi&#243;n Educativa</text><ellipse cx="347.5" cy="73.1019" fill="none" rx="3" ry="3" style="stroke:#038048;stroke-width:1.0;"/><text fill="#000000" font-family="sans-serif" font-size="14" lengthAdjust="spacing" textLength="183" x="356.5" y="77.0339">Potencial de Empleabilidad</text><ellipse cx="347.5" cy="92.1698" fill="none" rx="3" ry="3" style="stroke:#038048;stroke-width:1.0;"/><text fill="#000000" font-family="sans-serif" font-size="14" lengthAdjust="spacing" textLength="220" x="356.5" y="96.1018">Contribuci&#243;n al Mercado Laboral</text><ellipse cx="347.5" cy="111.2377" fill="none" rx="3" ry="3" style="stroke:#038048;stroke-width:1.0;"/><text fill="#000000" font-family="sans-serif" font-size="14" lengthAdjust="spacing" textLength="156" x="356.5" y="115.1697">Satisfacci&#243;n del Cliente</text><line style="stroke:#181818;stroke-width:0.5;" x1="337.5" x2="581.5" y1="123.2717" y2="123.2717"/></g><!--class Inversi?nEducativa--><g id="elem_Inversi&#243;nEducativa"><rect codeLine="8" fill="#F1F1F1" height="105.2038" id="Inversi&#243;nEducativa" rx="2.5" ry="2.5" style="stroke:#181818;stroke-width:0.5;" width="183" x="7" y="210"/><ellipse cx="32.35" cy="226" fill="#ADD1B2" rx="11" ry="11" style="stroke:#181818;stroke-width:1.0;"/><path d="M35.3188,231.6406 Q34.7406,231.9375 34.1,232.0781 Q33.4594,232.2344 32.7563,232.2344 Q30.2563,232.2344 28.9281,230.5938 Q27.6156,228.9375 27.6156,225.8125 Q27.6156,222.6875 28.9281,221.0313 Q30.2563,219.375 32.7563,219.375 Q33.4594,219.375 34.1,219.5313 Q34.7563,219.6875 35.3188,219.9844 L35.3188,222.7031 Q34.6938,222.125 34.1,221.8594 Q33.5063,221.5781 32.8813,221.5781 Q31.5375,221.5781 30.85,222.6563 Q30.1625,223.7188 30.1625,225.8125 Q30.1625,227.9063 30.85,228.9844 Q31.5375,230.0469 32.8813,230.0469 Q33.5063,230.0469 34.1,229.7813 Q34.6938,229.5 35.3188,228.9219 L35.3188,231.6406 Z " fill="#000000"/><text fill="#000000" font-family="sans-serif" font-size="14" lengthAdjust="spacing" textLength="128" x="48.65" y="231.432">Inversi&#243;nEducativa</text><line style="stroke:#181818;stroke-width:0.5;" x1="8" x2="189" y1="242" y2="242"/><ellipse cx="18" cy="257.034" fill="none" rx="3" ry="3" style="stroke:#038048;stroke-width:1.0;"/><text fill="#000000" font-family="sans-serif" font-size="14" lengthAdjust="spacing" textLength="157" x="27" y="260.9659">Retorno de la Inversi&#243;n</text><ellipse cx="18" cy="276.1019" fill="none" rx="3" ry="3" style="stroke:#038048;stroke-width:1.0;"/><text fill="#000000" font-family="sans-serif" font-size="14" lengthAdjust="spacing" textLength="147" x="27" y="280.0339">Costo de la Educaci&#243;n</text><ellipse cx="18" cy="295.1698" fill="none" rx="3" ry="3" style="stroke:#038048;stroke-width:1.0;"/><text fill="#000000" font-family="sans-serif" font-size="14" lengthAdjust="spacing" textLength="157" x="27" y="299.1018">Becas y Financiamiento</text><line style="stroke:#181818;stroke-width:0.5;" x1="8" x2="189" y1="307.2038" y2="307.2038"/></g><!--class PotencialDeEmpleabilidad--><g id="elem_PotencialDeEmpleabilidad"><rect codeLine="14" fill="#F1F1F1" height="105.2038" id="PotencialDeEmpleabilidad" rx="2.5" ry="2.5" style="stroke:#181818;stroke-width:0.5;" width="208" x="225.5" y="210"/><ellipse cx="240.5" cy="226" fill="#ADD1B2" rx="11" ry="11" style="stroke:#181818;stroke-width:1.0;"/><path d="M243.4688,231.6406 Q242.8906,231.9375 242.25,232.0781 Q241.6094,232.2344 240.9063,232.2344 Q238.4063,232.2344 237.0781,230.5938 Q235.7656,228.9375 235.7656,225.8125 Q235.7656,222.6875 237.0781,221.0313 Q238.4063,219.375 240.9063,219.375 Q241.6094,219.375 242.25,219.5313 Q242.9063,219.6875 243.4688,219.9844 L243.4688,222.7031 Q242.8438,222.125 242.25,221.8594 Q241.6563,221.5781 241.0313,221.5781 Q239.6875,221.5781 239,222.6563 Q238.3125,223.7188 238.3125,225.8125 Q238.3125,227.9063 239,228.9844 Q239.6875,230.0469 241.0313,230.0469 Q241.6563,230.0469 242.25,229.7813 Q242.8438,229.5 243.4688,228.9219 L243.4688,231.6406 Z " fill="#000000"/><text fill="#000000" font-family="sans-serif" font-size="14" lengthAdjust="spacing" textLength="176" x="254.5" y="231.432">PotencialDeEmpleabilidad</text><line style="stroke:#181818;stroke-width:0.5;" x1="226.5" x2="432.5" y1="242" y2="242"/><ellipse cx="236.5" cy="257.034" fill="none" rx="3" ry="3" style="stroke:#038048;stroke-width:1.0;"/><text fill="#000000" font-family="sans-serif" font-size="14" lengthAdjust="spacing" textLength="158" x="245.5" y="260.9659">Habilidades Adquiridas</text><ellipse cx="236.5" cy="276.1019" fill="none" rx="3" ry="3" style="stroke:#038048;stroke-width:1.0;"/><text fill="#000000" font-family="sans-serif" font-size="14" lengthAdjust="spacing" textLength="135" x="245.5" y="280.0339">Experiencia Pr&#225;ctica</text><ellipse cx="236.5" cy="295.1698" fill="none" rx="3" ry="3" style="stroke:#038048;stroke-width:1.0;"/><text fill="#000000" font-family="sans-serif" font-size="14" lengthAdjust="spacing" textLength="143" x="245.5" y="299.1018">Proyectos y Portafolio</text><line style="stroke:#181818;stroke-width:0.5;" x1="226.5" x2="432.5" y1="307.2038" y2="307.2038"/></g><!--class Contribuci?nAlMercadoLaboral--><g id="elem_Contribuci&#243;nAlMercadoLaboral"><rect codeLine="20" fill="#F1F1F1" height="105.2038" id="Contribuci&#243;nAlMercadoLaboral" rx="2.5" ry="2.5" style="stroke:#181818;stroke-width:0.5;" width="241" x="469" y="210"/><ellipse cx="484" cy="226" fill="#ADD1B2" rx="11" ry="11" style="stroke:#181818;stroke-width:1.0;"/><path d="M486.9688,231.6406 Q486.3906,231.9375 485.75,232.0781 Q485.1094,232.2344 484.4063,232.2344 Q481.9063,232.2344 480.5781,230.5938 Q479.2656,228.9375 479.2656,225.8125 Q479.2656,222.6875 480.5781,221.0313 Q481.9063,219.375 484.4063,219.375 Q485.1094,219.375 485.75,219.5313 Q486.4063,219.6875 486.9688,219.9844 L486.9688,222.7031 Q486.3438,222.125 485.75,221.8594 Q485.1563,221.5781 484.5313,221.5781 Q483.1875,221.5781 482.5,222.6563 Q481.8125,223.7188 481.8125,225.8125 Q481.8125,227.9063 482.5,228.9844 Q483.1875,230.0469 484.5313,230.0469 Q485.1563,230.0469 485.75,229.7813 Q486.3438,229.5 486.9688,228.9219 L486.9688,231.6406 Z " fill="#000000"/><text fill="#000000" font-family="sans-serif" font-size="14" lengthAdjust="spacing" textLength="209" x="498" y="231.432">Contribuci&#243;nAlMercadoLaboral</text><line style="stroke:#181818;stroke-width:0.5;" x1="470" x2="709" y1="242" y2="242"/><ellipse cx="480" cy="257.034" fill="none" rx="3" ry="3" style="stroke:#038048;stroke-width:1.0;"/><text fill="#000000" font-family="sans-serif" font-size="14" lengthAdjust="spacing" textLength="113" x="489" y="260.9659">Emprendimiento</text><ellipse cx="480" cy="276.1019" fill="none" rx="3" ry="3" style="stroke:#038048;stroke-width:1.0;"/><text fill="#000000" font-family="sans-serif" font-size="14" lengthAdjust="spacing" textLength="74" x="489" y="280.0339">Innovaci&#243;n</text><ellipse cx="480" cy="295.1698" fill="none" rx="3" ry="3" style="stroke:#038048;stroke-width:1.0;"/><text fill="#000000" font-family="sans-serif" font-size="14" lengthAdjust="spacing" textLength="132" x="489" y="299.1018">Experiencia Laboral</text><line style="stroke:#181818;stroke-width:0.5;" x1="470" x2="709" y1="307.2038" y2="307.2038"/></g><!--class Satisfacci?nDelCliente--><g id="elem_Satisfacci&#243;nDelCliente"><rect codeLine="26" fill="#F1F1F1" height="105.2038" id="Satisfacci&#243;nDelCliente" rx="2.5" ry="2.5" style="stroke:#181818;stroke-width:0.5;" width="222" x="745.5" y="210"/><ellipse cx="778.95" cy="226" fill="#ADD1B2" rx="11" ry="11" style="stroke:#181818;stroke-width:1.0;"/><path d="M781.9188,231.6406 Q781.3406,231.9375 780.7,232.0781 Q780.0594,232.2344 779.3563,232.2344 Q776.8563,232.2344 775.5281,230.5938 Q774.2156,228.9375 774.2156,225.8125 Q774.2156,222.6875 775.5281,221.0313 Q776.8563,219.375 779.3563,219.375 Q780.0594,219.375 780.7,219.5313 Q781.3563,219.6875 781.9188,219.9844 L781.9188,222.7031 Q781.2938,222.125 780.7,221.8594 Q780.1063,221.5781 779.4813,221.5781 Q778.1375,221.5781 777.45,222.6563 Q776.7625,223.7188 776.7625,225.8125 Q776.7625,227.9063 777.45,228.9844 Q778.1375,230.0469 779.4813,230.0469 Q780.1063,230.0469 780.7,229.7813 Q781.2938,229.5 781.9188,228.9219 L781.9188,231.6406 Z " fill="#000000"/><text fill="#000000" font-family="sans-serif" font-size="14" lengthAdjust="spacing" textLength="149" x="797.05" y="231.432">Satisfacci&#243;nDelCliente</text><line style="stroke:#181818;stroke-width:0.5;" x1="746.5" x2="966.5" y1="242" y2="242"/><ellipse cx="756.5" cy="257.034" fill="none" rx="3" ry="3" style="stroke:#038048;stroke-width:1.0;"/><text fill="#000000" font-family="sans-serif" font-size="14" lengthAdjust="spacing" textLength="147" x="765.5" y="260.9659">Experiencia Educativa</text><ellipse cx="756.5" cy="276.1019" fill="none" rx="3" ry="3" style="stroke:#038048;stroke-width:1.0;"/><text fill="#000000" font-family="sans-serif" font-size="14" lengthAdjust="spacing" textLength="136" x="765.5" y="280.0339">Servicios de Soporte</text><ellipse cx="756.5" cy="295.1698" fill="none" rx="3" ry="3" style="stroke:#038048;stroke-width:1.0;"/><text fill="#000000" font-family="sans-serif" font-size="14" lengthAdjust="spacing" textLength="196" x="765.5" y="299.1018">Actividades Extracurriculares</text><line style="stroke:#181818;stroke-width:0.5;" x1="746.5" x2="966.5" y1="307.2038" y2="307.2038"/></g><!--reverse link Alumno to Inversi?nEducativa--><g id="link_Alumno_Inversi&#243;nEducativa"><path codeLine="32" d="M333.6789,136.7429 C283.8489,163.1729 236.95,188.06 190.09,212.91 " fill="none" id="Alumno-backto-Inversi&#243;nEducativa" style="stroke:#181818;stroke-width:1.0;"/><polygon fill="#181818" points="344.28,131.12,337.1052,130.3977,333.6789,136.7429,340.8537,137.4651,344.28,131.12" style="stroke:#181818;stroke-width:1.0;"/><polygon fill="#000000" points="280.083,173.196,289.4507,171.5537,286.6963,166.3612,280.083,173.196" style="stroke:#000000;stroke-width:1.0;"/><text fill="#000000" font-family="sans-serif" font-size="13" lengthAdjust="spacing" textLength="43" x="293.5" y="175.897">Incluye</text><text fill="#000000" font-family="sans-serif" font-size="13" lengthAdjust="spacing" textLength="7" x="323.553" y="153.2076">1</text><text fill="#000000" font-family="sans-serif" font-size="13" lengthAdjust="spacing" textLength="7" x="197.9646" y="205.0172">1</text></g><!--reverse link Alumno to PotencialDeEmpleabilidad--><g id="link_Alumno_PotencialDeEmpleabilidad"><path codeLine="33" d="M411.269,141.0477 C394.029,166.4377 380.98,185.66 364.49,209.95 " fill="none" id="Alumno-backto-PotencialDeEmpleabilidad" style="stroke:#181818;stroke-width:1.0;"/><polygon fill="#181818" points="418.01,131.12,411.3303,133.8369,411.269,141.0477,417.9487,138.3308,418.01,131.12" style="stroke:#181818;stroke-width:1.0;"/><polygon fill="#000000" points="396.6915,174.9897,404.2036,169.1571,399.3406,165.8555,396.6915,174.9897" style="stroke:#000000;stroke-width:1.0;"/><text fill="#000000" font-family="sans-serif" font-size="13" lengthAdjust="spacing" textLength="63" x="408.5" y="175.897">Determina</text><text fill="#000000" font-family="sans-serif" font-size="13" lengthAdjust="spacing" textLength="7" x="405.808" y="153.2076">1</text><text fill="#000000" font-family="sans-serif" font-size="13" lengthAdjust="spacing" textLength="7" x="361.9183" y="198.2972">1</text></g><!--reverse link Alumno to Contribuci?nAlMercadoLaboral--><g id="link_Alumno_Contribuci&#243;nAlMercadoLaboral"><path codeLine="34" d="M507.731,141.0477 C524.971,166.4377 538.02,185.66 554.51,209.95 " fill="none" id="Alumno-backto-Contribuci&#243;nAlMercadoLaboral" style="stroke:#181818;stroke-width:1.0;"/><polygon fill="#181818" points="500.99,131.12,501.0513,138.3308,507.731,141.0477,507.6697,133.8369,500.99,131.12" style="stroke:#181818;stroke-width:1.0;"/><polygon fill="#000000" points="540.3085,174.9897,537.6594,165.8555,532.7964,169.1571,540.3085,174.9897" style="stroke:#000000;stroke-width:1.0;"/><text fill="#000000" font-family="sans-serif" font-size="13" lengthAdjust="spacing" textLength="67" x="546.5" y="175.897">Contribuye</text><text fill="#000000" font-family="sans-serif" font-size="13" lengthAdjust="spacing" textLength="7" x="498.3826" y="153.2076">1</text><text fill="#000000" font-family="sans-serif" font-size="13" lengthAdjust="spacing" textLength="7" x="542.0973" y="198.2972">1</text></g><!--reverse link Alumno to Satisfacci?nDelCliente--><g id="link_Alumno_Satisfacci&#243;nDelCliente"><path codeLine="35" d="M593.4782,134.6238 C646.8582,160.3738 697.98,185.04 749.42,209.85 " fill="none" id="Alumno-backto-Satisfacci&#243;nDelCliente" style="stroke:#181818;stroke-width:1.0;"/><polygon fill="#181818" points="582.67,129.41,586.3362,135.6196,593.4782,134.6238,589.812,128.4142,582.67,129.41" style="stroke:#181818;stroke-width:1.0;"/><polygon fill="#000000" points="692.0034,173.0254,685.1336,166.4484,682.5798,171.7425,692.0034,173.0254" style="stroke:#000000;stroke-width:1.0;"/><text fill="#000000" font-family="sans-serif" font-size="13" lengthAdjust="spacing" textLength="30" x="696.5" y="175.897">Mide</text><text fill="#000000" font-family="sans-serif" font-size="13" lengthAdjust="spacing" textLength="7" x="590.389" y="129.4835">1</text><text fill="#000000" font-family="sans-serif" font-size="13" lengthAdjust="spacing" textLength="7" x="730.3253" y="200.0862">1</text></g><!--SRC=[VL9BQiCm4Dtx52BBbYowzQAG9YujD12Q4qn64nYG9NSacuJIm_GCFK8kLlaZnob9lJ7McwVt6QC1xzN2rALrwZDJyRb_jGs9vzEFLOMk4G8tq2CR5yWYWr6QL55MXc37XZNe7byw6uHtDNRaEBOcGT1ElS7E2PX-QXjlz7l0VagJKKl3P0DbNrc6dQ6pXT51SlTEmKaq6nqOc0mc1puahAFY6NiY1A-Ewfajj2dALjITHSTqAxh8bfHVqW75nlH7pH8_V8yLXug4ExhQoEaR0sCgJToHCBXMUkCamDuPdiXUbBOmGsL3Oqax6XAocWVFmvwiQwO1foPIuwFCHUihCaFdey24-sVhMvA6aME0sElMLJ43zSWYnco6Hef34C1QXB4s8EHRwU77cZtCrDrythslhJQFfsZg8wd7QvIRYydLYW996HTwdVb_j_c8trA-LLgkrgnRpYy0]--></g></svg>