<?xml version="1.0" encoding="us-ascii" standalone="no"?><svg xmlns="http://www.w3.org/2000/svg" xmlns:xlink="http://www.w3.org/1999/xlink" contentStyleType="text/css" height="303px" preserveAspectRatio="none" style="width:925px;height:303px;background:#FFFFFF;" version="1.1" viewBox="0 0 925 303" width="925px" zoomAndPan="magnify"><defs/><g><!--class Alumno--><g id="elem_Alumno"><rect codeLine="1" fill="#F1F1F1" height="105.2038" id="Alumno" rx="2.5" ry="2.5" style="stroke:#181818;stroke-width:0.5;" width="340" x="274" y="7"/><ellipse cx="413.75" cy="23" fill="#ADD1B2" rx="11" ry="11" style="stroke:#181818;stroke-width:1.0;"/><path d="M416.7188,28.6406 Q416.1406,28.9375 415.5,29.0781 Q414.8594,29.2344 414.1563,29.2344 Q411.6563,29.2344 410.3281,27.5938 Q409.0156,25.9375 409.0156,22.8125 Q409.0156,19.6875 410.3281,18.0313 Q411.6563,16.375 414.1563,16.375 Q414.8594,16.375 415.5,16.5313 Q416.1563,16.6875 416.7188,16.9844 L416.7188,19.7031 Q416.0938,19.125 415.5,18.8594 Q414.9063,18.5781 414.2813,18.5781 Q412.9375,18.5781 412.25,19.6563 Q411.5625,20.7188 411.5625,22.8125 Q411.5625,24.9063 412.25,25.9844 Q412.9375,27.0469 414.2813,27.0469 Q414.9063,27.0469 415.5,26.7813 Q416.0938,26.5 416.7188,25.9219 L416.7188,28.6406 Z " fill="#000000"/><text fill="#000000" font-family="sans-serif" font-size="14" lengthAdjust="spacing" textLength="52" x="434.25" y="28.432">Alumno</text><line style="stroke:#181818;stroke-width:0.5;" x1="275" x2="613" y1="39" y2="39"/><ellipse cx="285" cy="54.034" fill="none" rx="3" ry="3" style="stroke:#038048;stroke-width:1.0;"/><text fill="#000000" font-family="sans-serif" font-size="14" lengthAdjust="spacing" textLength="275" x="294" y="57.9659">Interacci&#243;n con Sistemas de Informaci&#243;n</text><ellipse cx="285" cy="73.1019" fill="none" rx="3" ry="3" style="stroke:#038048;stroke-width:1.0;"/><text fill="#000000" font-family="sans-serif" font-size="14" lengthAdjust="spacing" textLength="194" x="294" y="77.0339">Manejo de Datos del Alumno</text><ellipse cx="285" cy="92.1698" fill="none" rx="3" ry="3" style="stroke:#038048;stroke-width:1.0;"/><text fill="#000000" font-family="sans-serif" font-size="14" lengthAdjust="spacing" textLength="314" x="294" y="96.1018">Optimizaci&#243;n de la Experiencia de Aprendizaje</text><line style="stroke:#181818;stroke-width:0.5;" x1="275" x2="613" y1="104.2038" y2="104.2038"/></g><!--class Interacci?nConSistemasDeInformaci?n--><g id="elem_Interacci&#243;nConSistemasDeInformaci&#243;n"><rect codeLine="7" fill="#F1F1F1" height="105.2038" id="Interacci&#243;nConSistemasDeInformaci&#243;n" rx="2.5" ry="2.5" style="stroke:#181818;stroke-width:0.5;" width="294" x="7" y="191"/><ellipse cx="22" cy="207" fill="#ADD1B2" rx="11" ry="11" style="stroke:#181818;stroke-width:1.0;"/><path d="M24.9688,212.6406 Q24.3906,212.9375 23.75,213.0781 Q23.1094,213.2344 22.4063,213.2344 Q19.9063,213.2344 18.5781,211.5938 Q17.2656,209.9375 17.2656,206.8125 Q17.2656,203.6875 18.5781,202.0313 Q19.9063,200.375 22.4063,200.375 Q23.1094,200.375 23.75,200.5313 Q24.4063,200.6875 24.9688,200.9844 L24.9688,203.7031 Q24.3438,203.125 23.75,202.8594 Q23.1563,202.5781 22.5313,202.5781 Q21.1875,202.5781 20.5,203.6563 Q19.8125,204.7188 19.8125,206.8125 Q19.8125,208.9063 20.5,209.9844 Q21.1875,211.0469 22.5313,211.0469 Q23.1563,211.0469 23.75,210.7813 Q24.3438,210.5 24.9688,209.9219 L24.9688,212.6406 Z " fill="#000000"/><text fill="#000000" font-family="sans-serif" font-size="14" lengthAdjust="spacing" textLength="262" x="36" y="212.432">Interacci&#243;nConSistemasDeInformaci&#243;n</text><line style="stroke:#181818;stroke-width:0.5;" x1="8" x2="300" y1="223" y2="223"/><ellipse cx="18" cy="238.034" fill="none" rx="3" ry="3" style="stroke:#038048;stroke-width:1.0;"/><text fill="#000000" font-family="sans-serif" font-size="14" lengthAdjust="spacing" textLength="206" x="27" y="241.9659">Uso de Plataformas Educativas</text><ellipse cx="18" cy="257.1019" fill="none" rx="3" ry="3" style="stroke:#038048;stroke-width:1.0;"/><text fill="#000000" font-family="sans-serif" font-size="14" lengthAdjust="spacing" textLength="184" x="27" y="261.0339">Acceso a Recursos en L&#237;nea</text><ellipse cx="18" cy="276.1698" fill="none" rx="3" ry="3" style="stroke:#038048;stroke-width:1.0;"/><text fill="#000000" font-family="sans-serif" font-size="14" lengthAdjust="spacing" textLength="143" x="27" y="280.1018">Comunicaci&#243;n Digital</text><line style="stroke:#181818;stroke-width:0.5;" x1="8" x2="300" y1="288.2038" y2="288.2038"/></g><!--class ManejoDeDatosDelAlumno--><g id="elem_ManejoDeDatosDelAlumno"><rect codeLine="13" fill="#F1F1F1" height="105.2038" id="ManejoDeDatosDelAlumno" rx="2.5" ry="2.5" style="stroke:#181818;stroke-width:0.5;" width="216" x="336" y="191"/><ellipse cx="352.8" cy="207" fill="#ADD1B2" rx="11" ry="11" style="stroke:#181818;stroke-width:1.0;"/><path d="M355.7688,212.6406 Q355.1906,212.9375 354.55,213.0781 Q353.9094,213.2344 353.2063,213.2344 Q350.7063,213.2344 349.3781,211.5938 Q348.0656,209.9375 348.0656,206.8125 Q348.0656,203.6875 349.3781,202.0313 Q350.7063,200.375 353.2063,200.375 Q353.9094,200.375 354.55,200.5313 Q355.2063,200.6875 355.7688,200.9844 L355.7688,203.7031 Q355.1438,203.125 354.55,202.8594 Q353.9563,202.5781 353.3313,202.5781 Q351.9875,202.5781 351.3,203.6563 Q350.6125,204.7188 350.6125,206.8125 Q350.6125,208.9063 351.3,209.9844 Q351.9875,211.0469 353.3313,211.0469 Q353.9563,211.0469 354.55,210.7813 Q355.1438,210.5 355.7688,209.9219 L355.7688,212.6406 Z " fill="#000000"/><text fill="#000000" font-family="sans-serif" font-size="14" lengthAdjust="spacing" textLength="180" x="367.2" y="212.432">ManejoDeDatosDelAlumno</text><line style="stroke:#181818;stroke-width:0.5;" x1="337" x2="551" y1="223" y2="223"/><ellipse cx="347" cy="238.034" fill="none" rx="3" ry="3" style="stroke:#038048;stroke-width:1.0;"/><text fill="#000000" font-family="sans-serif" font-size="14" lengthAdjust="spacing" textLength="133" x="356" y="241.9659">Registro Acad&#233;mico</text><ellipse cx="347" cy="257.1019" fill="none" rx="3" ry="3" style="stroke:#038048;stroke-width:1.0;"/><text fill="#000000" font-family="sans-serif" font-size="14" lengthAdjust="spacing" textLength="190" x="356" y="261.0339">Preferencias de Aprendizaje</text><ellipse cx="347" cy="276.1698" fill="none" rx="3" ry="3" style="stroke:#038048;stroke-width:1.0;"/><text fill="#000000" font-family="sans-serif" font-size="14" lengthAdjust="spacing" textLength="188" x="356" y="280.1018">Rendimiento y Evaluaciones</text><line style="stroke:#181818;stroke-width:0.5;" x1="337" x2="551" y1="288.2038" y2="288.2038"/></g><!--class Optimizaci?nDeLaExperienciaDeAprendizaje--><g id="elem_Optimizaci&#243;nDeLaExperienciaDeAprendizaje"><rect codeLine="19" fill="#F1F1F1" height="105.2038" id="Optimizaci&#243;nDeLaExperienciaDeAprendizaje" rx="2.5" ry="2.5" style="stroke:#181818;stroke-width:0.5;" width="331" x="587.5" y="191"/><ellipse cx="602.5" cy="207" fill="#ADD1B2" rx="11" ry="11" style="stroke:#181818;stroke-width:1.0;"/><path d="M605.4688,212.6406 Q604.8906,212.9375 604.25,213.0781 Q603.6094,213.2344 602.9063,213.2344 Q600.4063,213.2344 599.0781,211.5938 Q597.7656,209.9375 597.7656,206.8125 Q597.7656,203.6875 599.0781,202.0313 Q600.4063,200.375 602.9063,200.375 Q603.6094,200.375 604.25,200.5313 Q604.9063,200.6875 605.4688,200.9844 L605.4688,203.7031 Q604.8438,203.125 604.25,202.8594 Q603.6563,202.5781 603.0313,202.5781 Q601.6875,202.5781 601,203.6563 Q600.3125,204.7188 600.3125,206.8125 Q600.3125,208.9063 601,209.9844 Q601.6875,211.0469 603.0313,211.0469 Q603.6563,211.0469 604.25,210.7813 Q604.8438,210.5 605.4688,209.9219 L605.4688,212.6406 Z " fill="#000000"/><text fill="#000000" font-family="sans-serif" font-size="14" lengthAdjust="spacing" textLength="299" x="616.5" y="212.432">Optimizaci&#243;nDeLaExperienciaDeAprendizaje</text><line style="stroke:#181818;stroke-width:0.5;" x1="588.5" x2="917.5" y1="223" y2="223"/><ellipse cx="598.5" cy="238.034" fill="none" rx="3" ry="3" style="stroke:#038048;stroke-width:1.0;"/><text fill="#000000" font-family="sans-serif" font-size="14" lengthAdjust="spacing" textLength="215" x="607.5" y="241.9659">Personalizaci&#243;n del Aprendizaje</text><ellipse cx="598.5" cy="257.1019" fill="none" rx="3" ry="3" style="stroke:#038048;stroke-width:1.0;"/><text fill="#000000" font-family="sans-serif" font-size="14" lengthAdjust="spacing" textLength="122" x="607.5" y="261.0339">An&#225;lisis Predictivo</text><ellipse cx="598.5" cy="276.1698" fill="none" rx="3" ry="3" style="stroke:#038048;stroke-width:1.0;"/><text fill="#000000" font-family="sans-serif" font-size="14" lengthAdjust="spacing" textLength="207" x="607.5" y="280.1018">Recomendaciones Inteligentes</text><line style="stroke:#181818;stroke-width:0.5;" x1="588.5" x2="917.5" y1="288.2038" y2="288.2038"/></g><!--reverse link Alumno to Interacci?nConSistemasDeInformaci?n--><g id="link_Alumno_Interacci&#243;nConSistemasDeInformaci&#243;n"><path codeLine="25" d="M351.506,118.5491 C312.246,143.1891 275.54,166.22 236.28,190.86 " fill="none" id="Alumno-backto-Interacci&#243;nConSistemasDeInformaci&#243;n" style="stroke:#181818;stroke-width:1.0;"/><polygon fill="#181818" points="361.67,112.17,354.4616,111.9715,351.506,118.5491,358.7143,118.7475,361.67,112.17" style="stroke:#181818;stroke-width:1.0;"/><polygon fill="#000000" points="308.7649,154.5108,317.9885,152.1922,314.8641,147.2135,308.7649,154.5108" style="stroke:#000000;stroke-width:1.0;"/><text fill="#000000" font-family="sans-serif" font-size="13" lengthAdjust="spacing" textLength="62" x="322" y="156.897">Interact&#250;a</text><text fill="#000000" font-family="sans-serif" font-size="13" lengthAdjust="spacing" textLength="7" x="343.673" y="133.9366">1</text><text fill="#000000" font-family="sans-serif" font-size="13" lengthAdjust="spacing" textLength="7" x="240.3584" y="179.1945">1</text></g><!--reverse link Alumno to ManejoDeDatosDelAlumno--><g id="link_Alumno_ManejoDeDatosDelAlumno"><path codeLine="26" d="M444,124.17 C444,148.76 444,166.1 444,190.7 " fill="none" id="Alumno-backto-ManejoDeDatosDelAlumno" style="stroke:#181818;stroke-width:1.0;"/><polygon fill="#181818" points="444,112.17,440,118.17,444,124.17,448,118.17,444,112.17" style="stroke:#181818;stroke-width:1.0;"/><polygon fill="#000000" points="449,156.853,451.9389,147.8079,446.0611,147.8079,449,156.853" style="stroke:#000000;stroke-width:1.0;"/><text fill="#000000" font-family="sans-serif" font-size="13" lengthAdjust="spacing" textLength="85" x="458" y="156.897">Se Representa</text><text fill="#000000" font-family="sans-serif" font-size="13" lengthAdjust="spacing" textLength="7" x="436.5516" y="133.9366">1</text><text fill="#000000" font-family="sans-serif" font-size="13" lengthAdjust="spacing" textLength="7" x="436.5078" y="179.012">1</text></g><!--reverse link Alumno to Optimizaci?nDeLaExperienciaDeAprendizaje--><g id="link_Alumno_Optimizaci&#243;nDeLaExperienciaDeAprendizaje"><path codeLine="27" d="M542.0602,118.2594 C583.9002,142.8994 623.49,166.22 665.33,190.86 " fill="none" id="Alumno-backto-Optimizaci&#243;nDeLaExperienciaDeAprendizaje" style="stroke:#181818;stroke-width:1.0;"/><polygon fill="#181818" points="531.72,112.17,534.8603,118.6614,542.0602,118.2594,538.9199,111.768,531.72,112.17" style="stroke:#181818;stroke-width:1.0;"/><polygon fill="#000000" points="617.3083,154.3904,611.006,147.2678,608.0231,152.3326,617.3083,154.3904" style="stroke:#000000;stroke-width:1.0;"/><text fill="#000000" font-family="sans-serif" font-size="13" lengthAdjust="spacing" textLength="59" x="622" y="156.897">Se Mejora</text><text fill="#000000" font-family="sans-serif" font-size="13" lengthAdjust="spacing" textLength="7" x="535.5107" y="133.9366">1</text><text fill="#000000" font-family="sans-serif" font-size="13" lengthAdjust="spacing" textLength="7" x="645.5092" y="179.1945">1</text></g><!--SRC=[ZP4zQiD048LxdM9mcU0YhOk0i5mOR69iSe1XD3PhziVihan-o65IfaYLBgqkbj5Amd8IWzK8QTxCVEyDQGm1SbqPw-0r0tbkvpQoHo9LVraWPs6ZGcI30Kg6kTqwRp0LM_aIBUzTKoimkaQaku5j_U4GbL4lRKiZqmYpfmDxnPOKDd_oWsTRYcRFsLkMKO8QOaoTxI4A7YBqp8yX4QmqHapL0BEo8epgYA6Lv4GiAeGrK-M3aBA5HVrf6Ll1r9dAAke65sgd8keJJ-kpuEIoO7qUsfft0kWTv8Hb_M4KTVPNdhViazNmsslNAPz6meWEdc5sH5q9WhCSJhlFCYnuWOC02nwCx75MB0ujwa7k-k_gtDRlMWKLG2XBHPAMww786H5t9EaOMkq4iiNgp8_kHd0p7gVtTVUQzBfOVoFS_pVeGj0JsB3SJZm4mRZGUtrGQTnI5lbcr0y0]--></g></svg>