<?xml version="1.0" encoding="us-ascii" standalone="no"?><svg xmlns="http://www.w3.org/2000/svg" xmlns:xlink="http://www.w3.org/1999/xlink" contentStyleType="text/css" height="303px" preserveAspectRatio="none" style="width:828px;height:303px;background:#FFFFFF;" version="1.1" viewBox="0 0 828 303" width="828px" zoomAndPan="magnify"><defs/><g><!--class Alumno--><g id="elem_Alumno"><rect codeLine="1" fill="#F1F1F1" height="105.2038" id="Alumno" rx="2.5" ry="2.5" style="stroke:#181818;stroke-width:0.5;" width="168" x="309" y="7"/><ellipse cx="362.75" cy="23" fill="#ADD1B2" rx="11" ry="11" style="stroke:#181818;stroke-width:1.0;"/><path d="M365.7188,28.6406 Q365.1406,28.9375 364.5,29.0781 Q363.8594,29.2344 363.1563,29.2344 Q360.6563,29.2344 359.3281,27.5938 Q358.0156,25.9375 358.0156,22.8125 Q358.0156,19.6875 359.3281,18.0313 Q360.6563,16.375 363.1563,16.375 Q363.8594,16.375 364.5,16.5313 Q365.1563,16.6875 365.7188,16.9844 L365.7188,19.7031 Q365.0938,19.125 364.5,18.8594 Q363.9063,18.5781 363.2813,18.5781 Q361.9375,18.5781 361.25,19.6563 Q360.5625,20.7188 360.5625,22.8125 Q360.5625,24.9063 361.25,25.9844 Q361.9375,27.0469 363.2813,27.0469 Q363.9063,27.0469 364.5,26.7813 Q365.0938,26.5 365.7188,25.9219 L365.7188,28.6406 Z " fill="#000000"/><text fill="#000000" font-family="sans-serif" font-size="14" lengthAdjust="spacing" textLength="52" x="383.25" y="28.432">Alumno</text><line style="stroke:#181818;stroke-width:0.5;" x1="310" x2="476" y1="39" y2="39"/><ellipse cx="320" cy="54.034" fill="none" rx="3" ry="3" style="stroke:#038048;stroke-width:1.0;"/><text fill="#000000" font-family="sans-serif" font-size="14" lengthAdjust="spacing" textLength="121" x="329" y="57.9659">Proceso Educativo</text><ellipse cx="320" cy="73.1019" fill="none" rx="3" ry="3" style="stroke:#038048;stroke-width:1.0;"/><text fill="#000000" font-family="sans-serif" font-size="14" lengthAdjust="spacing" textLength="108" x="329" y="77.0339">Flujo de Trabajo</text><ellipse cx="320" cy="92.1698" fill="none" rx="3" ry="3" style="stroke:#038048;stroke-width:1.0;"/><text fill="#000000" font-family="sans-serif" font-size="14" lengthAdjust="spacing" textLength="142" x="329" y="96.1018">Ergonom&#237;a Educativa</text><line style="stroke:#181818;stroke-width:0.5;" x1="310" x2="476" y1="104.2038" y2="104.2038"/></g><!--class ProcesoEducativo--><g id="elem_ProcesoEducativo"><rect codeLine="7" fill="#F1F1F1" height="105.2038" id="ProcesoEducativo" rx="2.5" ry="2.5" style="stroke:#181818;stroke-width:0.5;" width="252" x="7" y="191"/><ellipse cx="70.25" cy="207" fill="#ADD1B2" rx="11" ry="11" style="stroke:#181818;stroke-width:1.0;"/><path d="M73.2188,212.6406 Q72.6406,212.9375 72,213.0781 Q71.3594,213.2344 70.6563,213.2344 Q68.1563,213.2344 66.8281,211.5938 Q65.5156,209.9375 65.5156,206.8125 Q65.5156,203.6875 66.8281,202.0313 Q68.1563,200.375 70.6563,200.375 Q71.3594,200.375 72,200.5313 Q72.6563,200.6875 73.2188,200.9844 L73.2188,203.7031 Q72.5938,203.125 72,202.8594 Q71.4063,202.5781 70.7813,202.5781 Q69.4375,202.5781 68.75,203.6563 Q68.0625,204.7188 68.0625,206.8125 Q68.0625,208.9063 68.75,209.9844 Q69.4375,211.0469 70.7813,211.0469 Q71.4063,211.0469 72,210.7813 Q72.5938,210.5 73.2188,209.9219 L73.2188,212.6406 Z " fill="#000000"/><text fill="#000000" font-family="sans-serif" font-size="14" lengthAdjust="spacing" textLength="117" x="90.75" y="212.432">ProcesoEducativo</text><line style="stroke:#181818;stroke-width:0.5;" x1="8" x2="258" y1="223" y2="223"/><ellipse cx="18" cy="238.034" fill="none" rx="3" ry="3" style="stroke:#038048;stroke-width:1.0;"/><text fill="#000000" font-family="sans-serif" font-size="14" lengthAdjust="spacing" textLength="226" x="27" y="241.9659">Maximizaci&#243;n de la Productividad</text><ellipse cx="18" cy="257.1019" fill="none" rx="3" ry="3" style="stroke:#038048;stroke-width:1.0;"/><text fill="#000000" font-family="sans-serif" font-size="14" lengthAdjust="spacing" textLength="176" x="27" y="261.0339">Minimizaci&#243;n de Recursos</text><ellipse cx="18" cy="276.1698" fill="none" rx="3" ry="3" style="stroke:#038048;stroke-width:1.0;"/><text fill="#000000" font-family="sans-serif" font-size="14" lengthAdjust="spacing" textLength="139" x="27" y="280.1018">Objetivos Educativos</text><line style="stroke:#181818;stroke-width:0.5;" x1="8" x2="258" y1="288.2038" y2="288.2038"/></g><!--class FlujoDeTrabajo--><g id="elem_FlujoDeTrabajo"><rect codeLine="13" fill="#F1F1F1" height="105.2038" id="FlujoDeTrabajo" rx="2.5" ry="2.5" style="stroke:#181818;stroke-width:0.5;" width="198" x="294" y="191"/><ellipse cx="338.25" cy="207" fill="#ADD1B2" rx="11" ry="11" style="stroke:#181818;stroke-width:1.0;"/><path d="M341.2188,212.6406 Q340.6406,212.9375 340,213.0781 Q339.3594,213.2344 338.6563,213.2344 Q336.1563,213.2344 334.8281,211.5938 Q333.5156,209.9375 333.5156,206.8125 Q333.5156,203.6875 334.8281,202.0313 Q336.1563,200.375 338.6563,200.375 Q339.3594,200.375 340,200.5313 Q340.6563,200.6875 341.2188,200.9844 L341.2188,203.7031 Q340.5938,203.125 340,202.8594 Q339.4063,202.5781 338.7813,202.5781 Q337.4375,202.5781 336.75,203.6563 Q336.0625,204.7188 336.0625,206.8125 Q336.0625,208.9063 336.75,209.9844 Q337.4375,211.0469 338.7813,211.0469 Q339.4063,211.0469 340,210.7813 Q340.5938,210.5 341.2188,209.9219 L341.2188,212.6406 Z " fill="#000000"/><text fill="#000000" font-family="sans-serif" font-size="14" lengthAdjust="spacing" textLength="101" x="358.75" y="212.432">FlujoDeTrabajo</text><line style="stroke:#181818;stroke-width:0.5;" x1="295" x2="491" y1="223" y2="223"/><ellipse cx="305" cy="238.034" fill="none" rx="3" ry="3" style="stroke:#038048;stroke-width:1.0;"/><text fill="#000000" font-family="sans-serif" font-size="14" lengthAdjust="spacing" textLength="142" x="314" y="241.9659">Progresi&#243;n Educativa</text><ellipse cx="305" cy="257.1019" fill="none" rx="3" ry="3" style="stroke:#038048;stroke-width:1.0;"/><text fill="#000000" font-family="sans-serif" font-size="14" lengthAdjust="spacing" textLength="167" x="314" y="261.0339">Planificaci&#243;n de Horarios</text><ellipse cx="305" cy="276.1698" fill="none" rx="3" ry="3" style="stroke:#038048;stroke-width:1.0;"/><text fill="#000000" font-family="sans-serif" font-size="14" lengthAdjust="spacing" textLength="172" x="314" y="280.1018">Optimizaci&#243;n de Espacios</text><line style="stroke:#181818;stroke-width:0.5;" x1="295" x2="491" y1="288.2038" y2="288.2038"/></g><!--class Ergonom?aEducativa--><g id="elem_Ergonom&#237;aEducativa"><rect codeLine="19" fill="#F1F1F1" height="105.2038" id="Ergonom&#237;aEducativa" rx="2.5" ry="2.5" style="stroke:#181818;stroke-width:0.5;" width="294" x="527" y="191"/><ellipse cx="600.75" cy="207" fill="#ADD1B2" rx="11" ry="11" style="stroke:#181818;stroke-width:1.0;"/><path d="M603.7188,212.6406 Q603.1406,212.9375 602.5,213.0781 Q601.8594,213.2344 601.1563,213.2344 Q598.6563,213.2344 597.3281,211.5938 Q596.0156,209.9375 596.0156,206.8125 Q596.0156,203.6875 597.3281,202.0313 Q598.6563,200.375 601.1563,200.375 Q601.8594,200.375 602.5,200.5313 Q603.1563,200.6875 603.7188,200.9844 L603.7188,203.7031 Q603.0938,203.125 602.5,202.8594 Q601.9063,202.5781 601.2813,202.5781 Q599.9375,202.5781 599.25,203.6563 Q598.5625,204.7188 598.5625,206.8125 Q598.5625,208.9063 599.25,209.9844 Q599.9375,211.0469 601.2813,211.0469 Q601.9063,211.0469 602.5,210.7813 Q603.0938,210.5 603.7188,209.9219 L603.7188,212.6406 Z " fill="#000000"/><text fill="#000000" font-family="sans-serif" font-size="14" lengthAdjust="spacing" textLength="138" x="621.25" y="212.432">Ergonom&#237;aEducativa</text><line style="stroke:#181818;stroke-width:0.5;" x1="528" x2="820" y1="223" y2="223"/><ellipse cx="538" cy="238.034" fill="none" rx="3" ry="3" style="stroke:#038048;stroke-width:1.0;"/><text fill="#000000" font-family="sans-serif" font-size="14" lengthAdjust="spacing" textLength="108" x="547" y="241.9659">Dise&#241;o de Aulas</text><ellipse cx="538" cy="257.1019" fill="none" rx="3" ry="3" style="stroke:#038048;stroke-width:1.0;"/><text fill="#000000" font-family="sans-serif" font-size="14" lengthAdjust="spacing" textLength="268" x="547" y="261.0339">Disposici&#243;n de Entornos de Aprendizaje</text><ellipse cx="538" cy="276.1698" fill="none" rx="3" ry="3" style="stroke:#038048;stroke-width:1.0;"/><text fill="#000000" font-family="sans-serif" font-size="14" lengthAdjust="spacing" textLength="156" x="547" y="280.1018">Minimizaci&#243;n de Fatiga</text><line style="stroke:#181818;stroke-width:0.5;" x1="528" x2="820" y1="288.2038" y2="288.2038"/></g><!--reverse link Alumno to ProcesoEducativo--><g id="link_Alumno_ProcesoEducativo"><path codeLine="25" d="M309.3591,119.0514 C274.2291,143.6414 242.15,166.1 206.99,190.7 " fill="none" id="Alumno-backto-ProcesoEducativo" style="stroke:#181818;stroke-width:1.0;"/><polygon fill="#181818" points="319.19,112.17,311.9808,112.3337,309.3591,119.0514,316.5683,118.8877,319.19,112.17" style="stroke:#181818;stroke-width:1.0;"/><polygon fill="#000000" points="271.9037,154.7201,280.9992,151.9413,277.6288,147.1257,271.9037,154.7201" style="stroke:#000000;stroke-width:1.0;"/><text fill="#000000" font-family="sans-serif" font-size="13" lengthAdjust="spacing" textLength="54" x="285" y="156.897">Optimiza</text><text fill="#000000" font-family="sans-serif" font-size="13" lengthAdjust="spacing" textLength="7" x="302.2847" y="133.9366">1</text><text fill="#000000" font-family="sans-serif" font-size="13" lengthAdjust="spacing" textLength="7" x="209.9027" y="179.012">1</text></g><!--reverse link Alumno to FlujoDeTrabajo--><g id="link_Alumno_FlujoDeTrabajo"><path codeLine="26" d="M393,124.17 C393,148.76 393,166.1 393,190.7 " fill="none" id="Alumno-backto-FlujoDeTrabajo" style="stroke:#181818;stroke-width:1.0;"/><polygon fill="#181818" points="393,112.17,389,118.17,393,124.17,397,118.17,393,112.17" style="stroke:#181818;stroke-width:1.0;"/><polygon fill="#000000" points="398,156.853,400.9389,147.8079,395.0611,147.8079,398,156.853" style="stroke:#000000;stroke-width:1.0;"/><text fill="#000000" font-family="sans-serif" font-size="13" lengthAdjust="spacing" textLength="46" x="407" y="156.897">Navega</text><text fill="#000000" font-family="sans-serif" font-size="13" lengthAdjust="spacing" textLength="7" x="385.5516" y="133.9366">1</text><text fill="#000000" font-family="sans-serif" font-size="13" lengthAdjust="spacing" textLength="7" x="385.5078" y="179.012">1</text></g><!--reverse link Alumno to Ergonom?aEducativa--><g id="link_Alumno_Ergonom&#237;aEducativa"><path codeLine="27" d="M482.8423,118.693 C520.8123,143.283 556.03,166.1 594.03,190.7 " fill="none" id="Alumno-backto-Ergonom&#237;aEducativa" style="stroke:#181818;stroke-width:1.0;"/><polygon fill="#181818" points="472.77,112.17,475.6318,118.7889,482.8423,118.693,479.9805,112.0741,472.77,112.17" style="stroke:#181818;stroke-width:1.0;"/><polygon fill="#000000" points="550.1968,154.5709,544.2023,147.1874,541.0072,152.121,550.1968,154.5709" style="stroke:#000000;stroke-width:1.0;"/><text fill="#000000" font-family="sans-serif" font-size="13" lengthAdjust="spacing" textLength="53" x="555" y="156.897">Beneficia</text><text fill="#000000" font-family="sans-serif" font-size="13" lengthAdjust="spacing" textLength="7" x="475.5421" y="133.9366">1</text><text fill="#000000" font-family="sans-serif" font-size="13" lengthAdjust="spacing" textLength="7" x="575.292" y="179.012">1</text></g><!--SRC=[TP5DJiD038NtEONL9QWBjbaW5RKLcm92NC2TcCXHCex6IOL078a5uWYv69F9pxJGPXF5yyrxpo-cH5LObMrb1JuIyC_ranD3Ah39MeCD7sGORyks4CW8NXpkiHYd6vUBbQhxmfd7v3D9J10UfMQboMA7RrpnEnhkVcolMMBFUinJd64sOcnFiMSohLFHuVXnNr2lgZ6gHk-GTqrZsgFbSaSQ16FWuQX4owziejszE7GyszNDQPgDrlxZs3EsCMjFncjMwhv3WQlMm_Eq5kKeQHjnrc_KOxKZctd3WYxKiVKEUQXx_8EBcmLSBPVX_Q_x5AODuFRSXJ-5fV201yelmESsJU6EBFa6kR_q2m00]--></g></svg>