<?xml version="1.0" encoding="us-ascii" standalone="no"?><svg xmlns="http://www.w3.org/2000/svg" xmlns:xlink="http://www.w3.org/1999/xlink" contentStyleType="text/css" height="468px" preserveAspectRatio="none" style="width:578px;height:468px;background:#FFFFFF;" version="1.1" viewBox="0 0 578 468" width="578px" zoomAndPan="magnify"><defs/><g><!--class Cinema--><g id="elem_Cinema"><rect codeLine="1" fill="#F1F1F1" height="105.2038" id="Cinema" rx="2.5" ry="2.5" style="stroke:#181818;stroke-width:0.5;" width="264" x="193.5" y="7"/><ellipse cx="295.75" cy="23" fill="#ADD1B2" rx="11" ry="11" style="stroke:#181818;stroke-width:1.0;"/><path d="M298.7188,28.6406 Q298.1406,28.9375 297.5,29.0781 Q296.8594,29.2344 296.1563,29.2344 Q293.6563,29.2344 292.3281,27.5938 Q291.0156,25.9375 291.0156,22.8125 Q291.0156,19.6875 292.3281,18.0313 Q293.6563,16.375 296.1563,16.375 Q296.8594,16.375 297.5,16.5313 Q298.1563,16.6875 298.7188,16.9844 L298.7188,19.7031 Q298.0938,19.125 297.5,18.8594 Q296.9063,18.5781 296.2813,18.5781 Q294.9375,18.5781 294.25,19.6563 Q293.5625,20.7188 293.5625,22.8125 Q293.5625,24.9063 294.25,25.9844 Q294.9375,27.0469 296.2813,27.0469 Q296.9063,27.0469 297.5,26.7813 Q298.0938,26.5 298.7188,25.9219 L298.7188,28.6406 Z " fill="#000000"/><text fill="#000000" font-family="sans-serif" font-size="14" lengthAdjust="spacing" textLength="51" x="316.25" y="28.432">Cinema</text><line style="stroke:#181818;stroke-width:0.5;" x1="194.5" x2="456.5" y1="39" y2="39"/><line style="stroke:#181818;stroke-width:0.5;" x1="194.5" x2="456.5" y1="47" y2="47"/><ellipse cx="204.5" cy="62.034" fill="#84BE84" rx="3" ry="3" style="stroke:#038048;stroke-width:1.0;"/><text fill="#000000" font-family="sans-serif" font-size="14" lengthAdjust="spacing" textLength="59" x="213.5" y="65.9659">Cinema()</text><ellipse cx="204.5" cy="81.1019" fill="#84BE84" rx="3" ry="3" style="stroke:#038048;stroke-width:1.0;"/><text fill="#000000" font-family="sans-serif" font-size="14" lengthAdjust="spacing" textLength="126" x="213.5" y="85.0339">showMovies(): void</text><ellipse cx="204.5" cy="100.1698" fill="#84BE84" rx="3" ry="3" style="stroke:#038048;stroke-width:1.0;"/><text fill="#000000" font-family="sans-serif" font-size="14" lengthAdjust="spacing" textLength="238" x="213.5" y="104.1018">buyTicket(Moviegoer, Movie): Ticket</text></g><!--class Movie--><g id="elem_Movie"><rect codeLine="7" fill="#F1F1F1" height="124.2717" id="Movie" rx="2.5" ry="2.5" style="stroke:#181818;stroke-width:0.5;" width="337" x="7" y="337"/><ellipse cx="151.25" cy="353" fill="#ADD1B2" rx="11" ry="11" style="stroke:#181818;stroke-width:1.0;"/><path d="M154.2188,358.6406 Q153.6406,358.9375 153,359.0781 Q152.3594,359.2344 151.6563,359.2344 Q149.1563,359.2344 147.8281,357.5938 Q146.5156,355.9375 146.5156,352.8125 Q146.5156,349.6875 147.8281,348.0313 Q149.1563,346.375 151.6563,346.375 Q152.3594,346.375 153,346.5313 Q153.6563,346.6875 154.2188,346.9844 L154.2188,349.7031 Q153.5938,349.125 153,348.8594 Q152.4063,348.5781 151.7813,348.5781 Q150.4375,348.5781 149.75,349.6563 Q149.0625,350.7188 149.0625,352.8125 Q149.0625,354.9063 149.75,355.9844 Q150.4375,357.0469 151.7813,357.0469 Q152.4063,357.0469 153,356.7813 Q153.5938,356.5 154.2188,355.9219 L154.2188,358.6406 Z " fill="#000000"/><text fill="#000000" font-family="sans-serif" font-size="14" lengthAdjust="spacing" textLength="40" x="171.75" y="358.432">Movie</text><line style="stroke:#181818;stroke-width:0.5;" x1="8" x2="343" y1="369" y2="369"/><line style="stroke:#181818;stroke-width:0.5;" x1="8" x2="343" y1="377" y2="377"/><ellipse cx="18" cy="392.034" fill="#84BE84" rx="3" ry="3" style="stroke:#038048;stroke-width:1.0;"/><text fill="#000000" font-family="sans-serif" font-size="14" lengthAdjust="spacing" textLength="311" x="27" y="395.9659">Movie(title: String, director: String, length: int)</text><ellipse cx="18" cy="411.1019" fill="#84BE84" rx="3" ry="3" style="stroke:#038048;stroke-width:1.0;"/><text fill="#000000" font-family="sans-serif" font-size="14" lengthAdjust="spacing" textLength="108" x="27" y="415.0339">getTitle(): String</text><ellipse cx="18" cy="430.1698" fill="#84BE84" rx="3" ry="3" style="stroke:#038048;stroke-width:1.0;"/><text fill="#000000" font-family="sans-serif" font-size="14" lengthAdjust="spacing" textLength="133" x="27" y="434.1018">getDirector(): String</text><ellipse cx="18" cy="449.2377" fill="#84BE84" rx="3" ry="3" style="stroke:#038048;stroke-width:1.0;"/><text fill="#000000" font-family="sans-serif" font-size="14" lengthAdjust="spacing" textLength="103" x="27" y="453.1697">getLength(): int</text></g><!--class Ticket--><g id="elem_Ticket"><rect codeLine="14" fill="#F1F1F1" height="105.2038" id="Ticket" rx="2.5" ry="2.5" style="stroke:#181818;stroke-width:0.5;" width="206" x="222.5" y="172"/><ellipse cx="301.75" cy="188" fill="#ADD1B2" rx="11" ry="11" style="stroke:#181818;stroke-width:1.0;"/><path d="M304.7188,193.6406 Q304.1406,193.9375 303.5,194.0781 Q302.8594,194.2344 302.1563,194.2344 Q299.6563,194.2344 298.3281,192.5938 Q297.0156,190.9375 297.0156,187.8125 Q297.0156,184.6875 298.3281,183.0313 Q299.6563,181.375 302.1563,181.375 Q302.8594,181.375 303.5,181.5313 Q304.1563,181.6875 304.7188,181.9844 L304.7188,184.7031 Q304.0938,184.125 303.5,183.8594 Q302.9063,183.5781 302.2813,183.5781 Q300.9375,183.5781 300.25,184.6563 Q299.5625,185.7188 299.5625,187.8125 Q299.5625,189.9063 300.25,190.9844 Q300.9375,192.0469 302.2813,192.0469 Q302.9063,192.0469 303.5,191.7813 Q304.0938,191.5 304.7188,190.9219 L304.7188,193.6406 Z " fill="#000000"/><text fill="#000000" font-family="sans-serif" font-size="14" lengthAdjust="spacing" textLength="39" x="322.25" y="193.432">Ticket</text><line style="stroke:#181818;stroke-width:0.5;" x1="223.5" x2="427.5" y1="204" y2="204"/><line style="stroke:#181818;stroke-width:0.5;" x1="223.5" x2="427.5" y1="212" y2="212"/><ellipse cx="233.5" cy="227.034" fill="#84BE84" rx="3" ry="3" style="stroke:#038048;stroke-width:1.0;"/><text fill="#000000" font-family="sans-serif" font-size="14" lengthAdjust="spacing" textLength="166" x="242.5" y="230.9659">Ticket(Moviegoer, Movie)</text><ellipse cx="233.5" cy="246.1019" fill="#84BE84" rx="3" ry="3" style="stroke:#038048;stroke-width:1.0;"/><text fill="#000000" font-family="sans-serif" font-size="14" lengthAdjust="spacing" textLength="118" x="242.5" y="250.0339">getMovie(): Movie</text><ellipse cx="233.5" cy="265.1698" fill="#84BE84" rx="3" ry="3" style="stroke:#038048;stroke-width:1.0;"/><text fill="#000000" font-family="sans-serif" font-size="14" lengthAdjust="spacing" textLength="180" x="242.5" y="269.1018">getMoviegoer(): Moviegoer</text></g><!--class Moviegoer--><g id="elem_Moviegoer"><rect codeLine="20" fill="#F1F1F1" height="86.1358" id="Moviegoer" rx="2.5" ry="2.5" style="stroke:#181818;stroke-width:0.5;" width="192" x="379.5" y="356"/><ellipse cx="435.75" cy="372" fill="#ADD1B2" rx="11" ry="11" style="stroke:#181818;stroke-width:1.0;"/><path d="M438.7188,377.6406 Q438.1406,377.9375 437.5,378.0781 Q436.8594,378.2344 436.1563,378.2344 Q433.6563,378.2344 432.3281,376.5938 Q431.0156,374.9375 431.0156,371.8125 Q431.0156,368.6875 432.3281,367.0313 Q433.6563,365.375 436.1563,365.375 Q436.8594,365.375 437.5,365.5313 Q438.1563,365.6875 438.7188,365.9844 L438.7188,368.7031 Q438.0938,368.125 437.5,367.8594 Q436.9063,367.5781 436.2813,367.5781 Q434.9375,367.5781 434.25,368.6563 Q433.5625,369.7188 433.5625,371.8125 Q433.5625,373.9063 434.25,374.9844 Q434.9375,376.0469 436.2813,376.0469 Q436.9063,376.0469 437.5,375.7813 Q438.0938,375.5 438.7188,374.9219 L438.7188,377.6406 Z " fill="#000000"/><text fill="#000000" font-family="sans-serif" font-size="14" lengthAdjust="spacing" textLength="71" x="456.25" y="377.432">Moviegoer</text><line style="stroke:#181818;stroke-width:0.5;" x1="380.5" x2="570.5" y1="388" y2="388"/><line style="stroke:#181818;stroke-width:0.5;" x1="380.5" x2="570.5" y1="396" y2="396"/><ellipse cx="390.5" cy="411.034" fill="#84BE84" rx="3" ry="3" style="stroke:#038048;stroke-width:1.0;"/><text fill="#000000" font-family="sans-serif" font-size="14" lengthAdjust="spacing" textLength="166" x="399.5" y="414.9659">Moviegoer(name: String)</text><ellipse cx="390.5" cy="430.1019" fill="#84BE84" rx="3" ry="3" style="stroke:#038048;stroke-width:1.0;"/><text fill="#000000" font-family="sans-serif" font-size="14" lengthAdjust="spacing" textLength="119" x="399.5" y="434.0339">getName(): String</text></g><!--link Cinema to Ticket--><g id="link_Cinema_Ticket"><path codeLine="25" d="M325.5,112.07 C325.5,131.19 325.5,152.87 325.5,171.98 " fill="none" id="Cinema-Ticket" style="stroke:#181818;stroke-width:1.0;"/></g><!--link Ticket to Moviegoer--><g id="link_Ticket_Moviegoer"><path codeLine="26" d="M370.5,277.26 C392.34,302.36 418.23,332.14 438.84,355.84 " fill="none" id="Ticket-Moviegoer" style="stroke:#181818;stroke-width:1.0;"/></g><!--link Ticket to Movie--><g id="link_Ticket_Movie"><path codeLine="27" d="M280.5,277.26 C264.19,296.01 245.61,317.37 228.66,336.86 " fill="none" id="Ticket-Movie" style="stroke:#181818;stroke-width:1.0;"/></g><!--SRC=[TP5D3i8W48Ntd6AMDBONw5QNwaOlK2cXn1OI66kCyUx2G7zIu-xnpV3c3OY-yHxssiYXWJS3s2NDYwXzPvydEshfUL73Q7KRwUtnkcfnbyYffgnq9P0CJQd2Fem9iYQUd4borDZB6Yxej54bjDf9WTOjf9T6OLU3DaWXbCHhl1CZf9vC3_dgJ-583X47ZoLAYfQo_5iWEwIemO346iRckH0FcrKZMgrBxQOPvesd2UV0Li63IVw4gfhUCESDO1csOUmB]--></g></svg>