<?xml version="1.0" encoding="us-ascii" standalone="no"?><svg xmlns="http://www.w3.org/2000/svg" xmlns:xlink="http://www.w3.org/1999/xlink" contentStyleType="text/css" height="386px" preserveAspectRatio="none" style="width:253px;height:386px;background:#FFFFFF;" version="1.1" viewBox="0 0 253 386" width="253px" zoomAndPan="magnify"><defs/><g><!--class Eficacia--><g id="elem_Eficacia"><rect codeLine="1" fill="#F1F1F1" height="48" id="Eficacia" rx="2.5" ry="2.5" style="stroke:#181818;stroke-width:0.5;" width="83" x="7" y="331"/><ellipse cx="22" cy="347" fill="#ADD1B2" rx="11" ry="11" style="stroke:#181818;stroke-width:1.0;"/><path d="M24.9688,352.6406 Q24.3906,352.9375 23.75,353.0781 Q23.1094,353.2344 22.4063,353.2344 Q19.9063,353.2344 18.5781,351.5938 Q17.2656,349.9375 17.2656,346.8125 Q17.2656,343.6875 18.5781,342.0313 Q19.9063,340.375 22.4063,340.375 Q23.1094,340.375 23.75,340.5313 Q24.4063,340.6875 24.9688,340.9844 L24.9688,343.7031 Q24.3438,343.125 23.75,342.8594 Q23.1563,342.5781 22.5313,342.5781 Q21.1875,342.5781 20.5,343.6563 Q19.8125,344.7188 19.8125,346.8125 Q19.8125,348.9063 20.5,349.9844 Q21.1875,351.0469 22.5313,351.0469 Q23.1563,351.0469 23.75,350.7813 Q24.3438,350.5 24.9688,349.9219 L24.9688,352.6406 Z " fill="#000000"/><text fill="#000000" font-family="sans-serif" font-size="14" lengthAdjust="spacing" textLength="51" x="36" y="352.432">Eficacia</text><line style="stroke:#181818;stroke-width:0.5;" x1="8" x2="89" y1="363" y2="363"/><line style="stroke:#181818;stroke-width:0.5;" x1="8" x2="89" y1="371" y2="371"/></g><!--class Eficiencia--><g id="elem_Eficiencia"><rect codeLine="3" fill="#F1F1F1" height="48" id="Eficiencia" rx="2.5" ry="2.5" style="stroke:#181818;stroke-width:0.5;" width="96" x="150.5" y="331"/><ellipse cx="165.5" cy="347" fill="#ADD1B2" rx="11" ry="11" style="stroke:#181818;stroke-width:1.0;"/><path d="M168.4688,352.6406 Q167.8906,352.9375 167.25,353.0781 Q166.6094,353.2344 165.9063,353.2344 Q163.4063,353.2344 162.0781,351.5938 Q160.7656,349.9375 160.7656,346.8125 Q160.7656,343.6875 162.0781,342.0313 Q163.4063,340.375 165.9063,340.375 Q166.6094,340.375 167.25,340.5313 Q167.9063,340.6875 168.4688,340.9844 L168.4688,343.7031 Q167.8438,343.125 167.25,342.8594 Q166.6563,342.5781 166.0313,342.5781 Q164.6875,342.5781 164,343.6563 Q163.3125,344.7188 163.3125,346.8125 Q163.3125,348.9063 164,349.9844 Q164.6875,351.0469 166.0313,351.0469 Q166.6563,351.0469 167.25,350.7813 Q167.8438,350.5 168.4688,349.9219 L168.4688,352.6406 Z " fill="#000000"/><text fill="#000000" font-family="sans-serif" font-size="14" lengthAdjust="spacing" textLength="64" x="179.5" y="352.432">Eficiencia</text><line style="stroke:#181818;stroke-width:0.5;" x1="151.5" x2="245.5" y1="363" y2="363"/><line style="stroke:#181818;stroke-width:0.5;" x1="151.5" x2="245.5" y1="371" y2="371"/></g><!--class Compromiso--><g id="elem_Compromiso"><rect codeLine="5" fill="#F1F1F1" height="48" id="Compromiso" rx="2.5" ry="2.5" style="stroke:#181818;stroke-width:0.5;" width="117" x="53" y="223"/><ellipse cx="68" cy="239" fill="#ADD1B2" rx="11" ry="11" style="stroke:#181818;stroke-width:1.0;"/><path d="M70.9688,244.6406 Q70.3906,244.9375 69.75,245.0781 Q69.1094,245.2344 68.4063,245.2344 Q65.9063,245.2344 64.5781,243.5938 Q63.2656,241.9375 63.2656,238.8125 Q63.2656,235.6875 64.5781,234.0313 Q65.9063,232.375 68.4063,232.375 Q69.1094,232.375 69.75,232.5313 Q70.4063,232.6875 70.9688,232.9844 L70.9688,235.7031 Q70.3438,235.125 69.75,234.8594 Q69.1563,234.5781 68.5313,234.5781 Q67.1875,234.5781 66.5,235.6563 Q65.8125,236.7188 65.8125,238.8125 Q65.8125,240.9063 66.5,241.9844 Q67.1875,243.0469 68.5313,243.0469 Q69.1563,243.0469 69.75,242.7813 Q70.3438,242.5 70.9688,241.9219 L70.9688,244.6406 Z " fill="#000000"/><text fill="#000000" font-family="sans-serif" font-size="14" lengthAdjust="spacing" textLength="85" x="82" y="244.432">Compromiso</text><line style="stroke:#181818;stroke-width:0.5;" x1="54" x2="169" y1="255" y2="255"/><line style="stroke:#181818;stroke-width:0.5;" x1="54" x2="169" y1="263" y2="263"/></g><!--class Efectividad--><g id="elem_Efectividad"><rect codeLine="7" fill="#F1F1F1" height="48" id="Efectividad" rx="2.5" ry="2.5" style="stroke:#181818;stroke-width:0.5;" width="106" x="58.5" y="115"/><ellipse cx="73.5" cy="131" fill="#ADD1B2" rx="11" ry="11" style="stroke:#181818;stroke-width:1.0;"/><path d="M76.4688,136.6406 Q75.8906,136.9375 75.25,137.0781 Q74.6094,137.2344 73.9063,137.2344 Q71.4063,137.2344 70.0781,135.5938 Q68.7656,133.9375 68.7656,130.8125 Q68.7656,127.6875 70.0781,126.0313 Q71.4063,124.375 73.9063,124.375 Q74.6094,124.375 75.25,124.5313 Q75.9063,124.6875 76.4688,124.9844 L76.4688,127.7031 Q75.8438,127.125 75.25,126.8594 Q74.6563,126.5781 74.0313,126.5781 Q72.6875,126.5781 72,127.6563 Q71.3125,128.7188 71.3125,130.8125 Q71.3125,132.9063 72,133.9844 Q72.6875,135.0469 74.0313,135.0469 Q74.6563,135.0469 75.25,134.7813 Q75.8438,134.5 76.4688,133.9219 L76.4688,136.6406 Z " fill="#000000"/><text fill="#000000" font-family="sans-serif" font-size="14" lengthAdjust="spacing" textLength="74" x="87.5" y="136.432">Efectividad</text><line style="stroke:#181818;stroke-width:0.5;" x1="59.5" x2="163.5" y1="147" y2="147"/><line style="stroke:#181818;stroke-width:0.5;" x1="59.5" x2="163.5" y1="155" y2="155"/></g><!--class Solucion--><g id="elem_Solucion"><rect codeLine="9" fill="#F1F1F1" height="48" id="Solucion" rx="2.5" ry="2.5" style="stroke:#181818;stroke-width:0.5;" width="89" x="67" y="7"/><ellipse cx="82" cy="23" fill="#ADD1B2" rx="11" ry="11" style="stroke:#181818;stroke-width:1.0;"/><path d="M84.9688,28.6406 Q84.3906,28.9375 83.75,29.0781 Q83.1094,29.2344 82.4063,29.2344 Q79.9063,29.2344 78.5781,27.5938 Q77.2656,25.9375 77.2656,22.8125 Q77.2656,19.6875 78.5781,18.0313 Q79.9063,16.375 82.4063,16.375 Q83.1094,16.375 83.75,16.5313 Q84.4063,16.6875 84.9688,16.9844 L84.9688,19.7031 Q84.3438,19.125 83.75,18.8594 Q83.1563,18.5781 82.5313,18.5781 Q81.1875,18.5781 80.5,19.6563 Q79.8125,20.7188 79.8125,22.8125 Q79.8125,24.9063 80.5,25.9844 Q81.1875,27.0469 82.5313,27.0469 Q83.1563,27.0469 83.75,26.7813 Q84.3438,26.5 84.9688,25.9219 L84.9688,28.6406 Z " fill="#000000"/><text fill="#000000" font-family="sans-serif" font-size="14" lengthAdjust="spacing" textLength="57" x="96" y="28.432">Soluci&#243;n</text><line style="stroke:#181818;stroke-width:0.5;" x1="68" x2="155" y1="39" y2="39"/><line style="stroke:#181818;stroke-width:0.5;" x1="68" x2="155" y1="47" y2="47"/></g><!--link Solucion to Efectividad--><g id="link_Solucion_Efectividad"><path codeLine="13" d="M111.5,67 C111.5,84.66 111.5,90.94 111.5,108.68 " fill="none" id="Solucion-Efectividad" style="stroke:#181818;stroke-width:1.0;"/><polygon fill="#181818" points="111.5,55,107.5,61,111.5,67,115.5,61,111.5,55" style="stroke:#181818;stroke-width:1.0;"/><polygon fill="#181818" points="111.5,114.68,115.5,105.68,111.5,109.68,107.5,105.68,111.5,114.68" style="stroke:#181818;stroke-width:1.0;"/></g><!--link Compromiso to Eficacia--><g id="link_Compromiso_Eficacia"><path codeLine="15" d="M97.83,271 C87.34,288.66 75.9647,307.7817 65.4247,325.5217 " fill="none" id="Compromiso-to-Eficacia" style="stroke:#181818;stroke-width:1.0;"/><polygon fill="#181818" points="62.36,330.68,70.3959,324.9858,64.9139,326.3815,63.5182,320.8995,62.36,330.68" style="stroke:#181818;stroke-width:1.0;"/></g><!--link Compromiso to Eficiencia--><g id="link_Compromiso_Eficiencia"><path codeLine="16" d="M130.38,271 C144.87,288.66 160.9935,308.3021 175.5535,326.0421 " fill="none" id="Compromiso-to-Eficiencia" style="stroke:#181818;stroke-width:1.0;"/><polygon fill="#181818" points="179.36,330.68,176.7421,321.1854,176.1879,326.8151,170.5582,326.2608,179.36,330.68" style="stroke:#181818;stroke-width:1.0;"/></g><!--link Efectividad to Eficacia--><g id="link_Efectividad_Eficacia"><path codeLine="18" d="M72.0926,171.2716 C55.1726,186.2416 44.7,199.33 35.5,223 C21.59,258.79 29.7342,298.2982 38.2142,325.1682 " fill="none" id="Efectividad-Eficacia" style="stroke:#181818;stroke-width:1.0;"/><polygon fill="#181818" points="81.08,163.32,73.9358,164.3,72.0926,171.2716,79.2368,170.2916,81.08,163.32" style="stroke:#181818;stroke-width:1.0;"/><polygon fill="#181818" points="40.02,330.89,41.1259,321.1034,38.5152,326.1218,33.4968,323.5111,40.02,330.89" style="stroke:#181818;stroke-width:1.0;"/></g><!--link Efectividad to Eficiencia--><g id="link_Efectividad_Eficiencia"><path codeLine="19" d="M149.7353,171.3023 C166.4953,186.4023 177.24,199.55 187.5,223 C202.87,258.13 203.2232,297.5842 201.3532,324.6742 " fill="none" id="Efectividad-Eficiencia" style="stroke:#181818;stroke-width:1.0;"/><polygon fill="#181818" points="140.82,163.27,142.6002,170.2579,149.7353,171.3023,147.9551,164.3144,140.82,163.27" style="stroke:#181818;stroke-width:1.0;"/><polygon fill="#181818" points="200.94,330.66,205.5503,321.9568,201.2843,325.6719,197.5693,321.4059,200.94,330.66" style="stroke:#181818;stroke-width:1.0;"/></g><!--link Efectividad to Compromiso--><g id="link_Efectividad_Compromiso"><path codeLine="20" d="M111.5,175 C111.5,192.66 111.5,198.94 111.5,216.68 " fill="none" id="Efectividad-Compromiso" style="stroke:#181818;stroke-width:1.0;"/><polygon fill="#181818" points="111.5,163,107.5,169,111.5,175,115.5,169,111.5,163" style="stroke:#181818;stroke-width:1.0;"/><polygon fill="#181818" points="111.5,222.68,115.5,213.68,111.5,217.68,107.5,213.68,111.5,222.68" style="stroke:#181818;stroke-width:1.0;"/></g><!--SRC=[Iyv9B2vMS4tBJ4vCpapauag6ypDJyv14dFDp2uhoSpEByn5gKfDBCiioKn9JO49AmVavfScPXpVdAIaa5Yj0UFbvN400OojewQRab-Vfsg7gHnYle0kMWxe7YpZCNKZwaGs5QiGf2zMELHvX6m00]--></g></svg>