<?xml version="1.0" encoding="us-ascii" standalone="no"?><svg xmlns="http://www.w3.org/2000/svg" xmlns:xlink="http://www.w3.org/1999/xlink" contentStyleType="text/css" height="785px" preserveAspectRatio="none" style="width:554px;height:785px;background:#FFFFFF;" version="1.1" viewBox="0 0 554 785" width="554px" zoomAndPan="magnify"><defs/><g><!--class Animal--><g id="elem_Animal"><rect codeLine="4" fill="#F1F1F1" height="86.1358" id="Animal" rx="2.5" ry="2.5" style="stroke:#181818;stroke-width:0.5;" width="79" x="367" y="7"/><ellipse cx="382" cy="23" fill="#ADD1B2" rx="11" ry="11" style="stroke:#181818;stroke-width:1.0;"/><path d="M384.9688,28.6406 Q384.3906,28.9375 383.75,29.0781 Q383.1094,29.2344 382.4063,29.2344 Q379.9063,29.2344 378.5781,27.5938 Q377.2656,25.9375 377.2656,22.8125 Q377.2656,19.6875 378.5781,18.0313 Q379.9063,16.375 382.4063,16.375 Q383.1094,16.375 383.75,16.5313 Q384.4063,16.6875 384.9688,16.9844 L384.9688,19.7031 Q384.3438,19.125 383.75,18.8594 Q383.1563,18.5781 382.5313,18.5781 Q381.1875,18.5781 380.5,19.6563 Q379.8125,20.7188 379.8125,22.8125 Q379.8125,24.9063 380.5,25.9844 Q381.1875,27.0469 382.5313,27.0469 Q383.1563,27.0469 383.75,26.7813 Q384.3438,26.5 384.9688,25.9219 L384.9688,28.6406 Z " fill="#000000"/><text fill="#000000" font-family="sans-serif" font-size="14" lengthAdjust="spacing" textLength="47" x="396" y="28.432">Animal</text><line style="stroke:#181818;stroke-width:0.5;" x1="368" x2="445" y1="39" y2="39"/><rect fill="none" height="6" style="stroke:#C82930;stroke-width:1.0;" width="6" x="375" y="51.034"/><text fill="#000000" font-family="sans-serif" font-size="14" lengthAdjust="spacing" textLength="47" x="387" y="57.9659">celulas</text><line style="stroke:#181818;stroke-width:0.5;" x1="368" x2="445" y1="66.0679" y2="66.0679"/><ellipse cx="378" cy="81.1019" fill="#84BE84" rx="3" ry="3" style="stroke:#038048;stroke-width:1.0;"/><text fill="#000000" font-family="sans-serif" font-size="14" lengthAdjust="spacing" textLength="50" x="387" y="85.0339">comer()</text></g><!--class Vertebrado--><g id="elem_Vertebrado"><rect codeLine="8" fill="#F1F1F1" height="124.2717" id="Vertebrado" rx="2.5" ry="2.5" style="stroke:#181818;stroke-width:0.5;" width="133" x="259" y="153"/><ellipse cx="285.7" cy="169" fill="#ADD1B2" rx="11" ry="11" style="stroke:#181818;stroke-width:1.0;"/><path d="M288.6688,174.6406 Q288.0906,174.9375 287.45,175.0781 Q286.8094,175.2344 286.1063,175.2344 Q283.6063,175.2344 282.2781,173.5938 Q280.9656,171.9375 280.9656,168.8125 Q280.9656,165.6875 282.2781,164.0313 Q283.6063,162.375 286.1063,162.375 Q286.8094,162.375 287.45,162.5313 Q288.1063,162.6875 288.6688,162.9844 L288.6688,165.7031 Q288.0438,165.125 287.45,164.8594 Q286.8563,164.5781 286.2313,164.5781 Q284.8875,164.5781 284.2,165.6563 Q283.5125,166.7188 283.5125,168.8125 Q283.5125,170.9063 284.2,171.9844 Q284.8875,173.0469 286.2313,173.0469 Q286.8563,173.0469 287.45,172.7813 Q288.0438,172.5 288.6688,171.9219 L288.6688,174.6406 Z " fill="#000000"/><text fill="#000000" font-family="sans-serif" font-size="14" lengthAdjust="spacing" textLength="75" x="302.3" y="174.432">Vertebrado</text><line style="stroke:#181818;stroke-width:0.5;" x1="260" x2="391" y1="185" y2="185"/><rect fill="none" height="6" style="stroke:#C82930;stroke-width:1.0;" width="6" x="267" y="197.034"/><text fill="#000000" font-family="sans-serif" font-size="14" lengthAdjust="spacing" textLength="47" x="279" y="203.9659">celulas</text><rect fill="none" height="6" style="stroke:#C82930;stroke-width:1.0;" width="6" x="267" y="216.1019"/><text fill="#000000" font-family="sans-serif" font-size="14" lengthAdjust="spacing" textLength="48" x="279" y="223.0339">huesos</text><line style="stroke:#181818;stroke-width:0.5;" x1="260" x2="391" y1="231.1358" y2="231.1358"/><ellipse cx="270" cy="246.1698" fill="#84BE84" rx="3" ry="3" style="stroke:#038048;stroke-width:1.0;"/><text fill="#000000" font-family="sans-serif" font-size="14" lengthAdjust="spacing" textLength="50" x="279" y="250.1018">comer()</text><ellipse cx="270" cy="265.2377" fill="#84BE84" rx="3" ry="3" style="stroke:#038048;stroke-width:1.0;"/><text fill="#000000" font-family="sans-serif" font-size="14" lengthAdjust="spacing" textLength="107" x="279" y="269.1697">romperHuesos()</text></g><!--class Invertebrado--><g id="elem_Invertebrado"><rect codeLine="14" fill="#F1F1F1" height="86.1358" id="Invertebrado" rx="2.5" ry="2.5" style="stroke:#181818;stroke-width:0.5;" width="120" x="427.5" y="172"/><ellipse cx="442.5" cy="188" fill="#ADD1B2" rx="11" ry="11" style="stroke:#181818;stroke-width:1.0;"/><path d="M445.4688,193.6406 Q444.8906,193.9375 444.25,194.0781 Q443.6094,194.2344 442.9063,194.2344 Q440.4063,194.2344 439.0781,192.5938 Q437.7656,190.9375 437.7656,187.8125 Q437.7656,184.6875 439.0781,183.0313 Q440.4063,181.375 442.9063,181.375 Q443.6094,181.375 444.25,181.5313 Q444.9063,181.6875 445.4688,181.9844 L445.4688,184.7031 Q444.8438,184.125 444.25,183.8594 Q443.6563,183.5781 443.0313,183.5781 Q441.6875,183.5781 441,184.6563 Q440.3125,185.7188 440.3125,187.8125 Q440.3125,189.9063 441,190.9844 Q441.6875,192.0469 443.0313,192.0469 Q443.6563,192.0469 444.25,191.7813 Q444.8438,191.5 445.4688,190.9219 L445.4688,193.6406 Z " fill="#000000"/><text fill="#000000" font-family="sans-serif" font-size="14" lengthAdjust="spacing" textLength="88" x="456.5" y="193.432">Invertebrado</text><line style="stroke:#181818;stroke-width:0.5;" x1="428.5" x2="546.5" y1="204" y2="204"/><rect fill="none" height="6" style="stroke:#C82930;stroke-width:1.0;" width="6" x="435.5" y="216.034"/><text fill="#000000" font-family="sans-serif" font-size="14" lengthAdjust="spacing" textLength="47" x="447.5" y="222.9659">celulas</text><line style="stroke:#181818;stroke-width:0.5;" x1="428.5" x2="546.5" y1="231.0679" y2="231.0679"/><ellipse cx="438.5" cy="246.1019" fill="#84BE84" rx="3" ry="3" style="stroke:#038048;stroke-width:1.0;"/><text fill="#000000" font-family="sans-serif" font-size="14" lengthAdjust="spacing" textLength="50" x="447.5" y="250.0339">comer()</text></g><!--class Mamifero--><g id="elem_Mamifero"><rect codeLine="19" fill="#F1F1F1" height="162.4075" id="Mamifero" rx="2.5" ry="2.5" style="stroke:#181818;stroke-width:0.5;" width="133" x="175" y="346.5"/><ellipse cx="206.2" cy="362.5" fill="#ADD1B2" rx="11" ry="11" style="stroke:#181818;stroke-width:1.0;"/><path d="M209.1688,368.1406 Q208.5906,368.4375 207.95,368.5781 Q207.3094,368.7344 206.6063,368.7344 Q204.1063,368.7344 202.7781,367.0938 Q201.4656,365.4375 201.4656,362.3125 Q201.4656,359.1875 202.7781,357.5313 Q204.1063,355.875 206.6063,355.875 Q207.3094,355.875 207.95,356.0313 Q208.6063,356.1875 209.1688,356.4844 L209.1688,359.2031 Q208.5438,358.625 207.95,358.3594 Q207.3563,358.0781 206.7313,358.0781 Q205.3875,358.0781 204.7,359.1563 Q204.0125,360.2188 204.0125,362.3125 Q204.0125,364.4063 204.7,365.4844 Q205.3875,366.5469 206.7313,366.5469 Q207.3563,366.5469 207.95,366.2813 Q208.5438,366 209.1688,365.4219 L209.1688,368.1406 Z " fill="#000000"/><text fill="#000000" font-family="sans-serif" font-size="14" lengthAdjust="spacing" textLength="65" x="223.8" y="367.932">Mamifero</text><line style="stroke:#181818;stroke-width:0.5;" x1="176" x2="307" y1="378.5" y2="378.5"/><rect fill="none" height="6" style="stroke:#C82930;stroke-width:1.0;" width="6" x="183" y="390.534"/><text fill="#000000" font-family="sans-serif" font-size="14" lengthAdjust="spacing" textLength="47" x="195" y="397.4659">celulas</text><rect fill="none" height="6" style="stroke:#C82930;stroke-width:1.0;" width="6" x="183" y="409.6019"/><text fill="#000000" font-family="sans-serif" font-size="14" lengthAdjust="spacing" textLength="48" x="195" y="416.5339">huesos</text><rect fill="none" height="6" style="stroke:#C82930;stroke-width:1.0;" width="6" x="183" y="428.6698"/><text fill="#000000" font-family="sans-serif" font-size="14" lengthAdjust="spacing" textLength="40" x="195" y="435.6018">labios</text><line style="stroke:#181818;stroke-width:0.5;" x1="176" x2="307" y1="443.7038" y2="443.7038"/><ellipse cx="186" cy="458.7377" fill="#84BE84" rx="3" ry="3" style="stroke:#038048;stroke-width:1.0;"/><text fill="#000000" font-family="sans-serif" font-size="14" lengthAdjust="spacing" textLength="50" x="195" y="462.6697">comer()</text><ellipse cx="186" cy="477.8056" fill="#84BE84" rx="3" ry="3" style="stroke:#038048;stroke-width:1.0;"/><text fill="#000000" font-family="sans-serif" font-size="14" lengthAdjust="spacing" textLength="107" x="195" y="481.7376">romperHuesos()</text><ellipse cx="186" cy="496.8735" fill="#84BE84" rx="3" ry="3" style="stroke:#038048;stroke-width:1.0;"/><text fill="#000000" font-family="sans-serif" font-size="14" lengthAdjust="spacing" textLength="56" x="195" y="500.8055">mamar()</text></g><!--class Ave--><g id="elem_Ave"><rect codeLine="27" fill="#F1F1F1" height="181.4754" id="Ave" rx="2.5" ry="2.5" style="stroke:#181818;stroke-width:0.5;" width="133" x="343" y="337"/><ellipse cx="393.25" cy="353" fill="#ADD1B2" rx="11" ry="11" style="stroke:#181818;stroke-width:1.0;"/><path d="M396.2188,358.6406 Q395.6406,358.9375 395,359.0781 Q394.3594,359.2344 393.6563,359.2344 Q391.1563,359.2344 389.8281,357.5938 Q388.5156,355.9375 388.5156,352.8125 Q388.5156,349.6875 389.8281,348.0313 Q391.1563,346.375 393.6563,346.375 Q394.3594,346.375 395,346.5313 Q395.6563,346.6875 396.2188,346.9844 L396.2188,349.7031 Q395.5938,349.125 395,348.8594 Q394.4063,348.5781 393.7813,348.5781 Q392.4375,348.5781 391.75,349.6563 Q391.0625,350.7188 391.0625,352.8125 Q391.0625,354.9063 391.75,355.9844 Q392.4375,357.0469 393.7813,357.0469 Q394.4063,357.0469 395,356.7813 Q395.5938,356.5 396.2188,355.9219 L396.2188,358.6406 Z " fill="#000000"/><text fill="#000000" font-family="sans-serif" font-size="14" lengthAdjust="spacing" textLength="24" x="413.75" y="358.432">Ave</text><line style="stroke:#181818;stroke-width:0.5;" x1="344" x2="475" y1="369" y2="369"/><rect fill="none" height="6" style="stroke:#C82930;stroke-width:1.0;" width="6" x="351" y="381.034"/><text fill="#000000" font-family="sans-serif" font-size="14" lengthAdjust="spacing" textLength="47" x="363" y="387.9659">celulas</text><rect fill="none" height="6" style="stroke:#C82930;stroke-width:1.0;" width="6" x="351" y="400.1019"/><text fill="#000000" font-family="sans-serif" font-size="14" lengthAdjust="spacing" textLength="48" x="363" y="407.0339">huesos</text><rect fill="none" height="6" style="stroke:#C82930;stroke-width:1.0;" width="6" x="351" y="419.1698"/><text fill="#000000" font-family="sans-serif" font-size="14" lengthAdjust="spacing" textLength="28" x="363" y="426.1018">pico</text><line style="stroke:#181818;stroke-width:0.5;" x1="344" x2="475" y1="434.2038" y2="434.2038"/><ellipse cx="354" cy="449.2377" fill="#84BE84" rx="3" ry="3" style="stroke:#038048;stroke-width:1.0;"/><text fill="#000000" font-family="sans-serif" font-size="14" lengthAdjust="spacing" textLength="50" x="363" y="453.1697">comer()</text><ellipse cx="354" cy="468.3056" fill="#84BE84" rx="3" ry="3" style="stroke:#038048;stroke-width:1.0;"/><text fill="#000000" font-family="sans-serif" font-size="14" lengthAdjust="spacing" textLength="107" x="363" y="472.2376">romperHuesos()</text><ellipse cx="354" cy="487.3735" fill="#84BE84" rx="3" ry="3" style="stroke:#038048;stroke-width:1.0;"/><text fill="#000000" font-family="sans-serif" font-size="14" lengthAdjust="spacing" textLength="41" x="363" y="491.3055">volar()</text><ellipse cx="354" cy="506.4415" fill="#84BE84" rx="3" ry="3" style="stroke:#038048;stroke-width:1.0;"/><text fill="#000000" font-family="sans-serif" font-size="14" lengthAdjust="spacing" textLength="97" x="363" y="510.3734">ponerHuevos()</text></g><!--class Canino--><g id="elem_Canino"><rect codeLine="36" fill="#F1F1F1" height="181.4754" id="Canino" rx="2.5" ry="2.5" style="stroke:#181818;stroke-width:0.5;" width="133" x="7" y="588"/><ellipse cx="46.3" cy="604" fill="#ADD1B2" rx="11" ry="11" style="stroke:#181818;stroke-width:1.0;"/><path d="M49.2688,609.6406 Q48.6906,609.9375 48.05,610.0781 Q47.4094,610.2344 46.7063,610.2344 Q44.2063,610.2344 42.8781,608.5938 Q41.5656,606.9375 41.5656,603.8125 Q41.5656,600.6875 42.8781,599.0313 Q44.2063,597.375 46.7063,597.375 Q47.4094,597.375 48.05,597.5313 Q48.7063,597.6875 49.2688,597.9844 L49.2688,600.7031 Q48.6438,600.125 48.05,599.8594 Q47.4563,599.5781 46.8313,599.5781 Q45.4875,599.5781 44.8,600.6563 Q44.1125,601.7188 44.1125,603.8125 Q44.1125,605.9063 44.8,606.9844 Q45.4875,608.0469 46.8313,608.0469 Q47.4563,608.0469 48.05,607.7813 Q48.6438,607.5 49.2688,606.9219 L49.2688,609.6406 Z " fill="#000000"/><text fill="#000000" font-family="sans-serif" font-size="14" lengthAdjust="spacing" textLength="47" x="65.7" y="609.432">Canino</text><line style="stroke:#181818;stroke-width:0.5;" x1="8" x2="139" y1="620" y2="620"/><rect fill="none" height="6" style="stroke:#C82930;stroke-width:1.0;" width="6" x="15" y="632.034"/><text fill="#000000" font-family="sans-serif" font-size="14" lengthAdjust="spacing" textLength="47" x="27" y="638.9659">celulas</text><rect fill="none" height="6" style="stroke:#C82930;stroke-width:1.0;" width="6" x="15" y="651.1019"/><text fill="#000000" font-family="sans-serif" font-size="14" lengthAdjust="spacing" textLength="48" x="27" y="658.0339">huesos</text><rect fill="none" height="6" style="stroke:#C82930;stroke-width:1.0;" width="6" x="15" y="670.1698"/><text fill="#000000" font-family="sans-serif" font-size="14" lengthAdjust="spacing" textLength="40" x="27" y="677.1018">labios</text><rect fill="none" height="6" style="stroke:#C82930;stroke-width:1.0;" width="6" x="15" y="689.2377"/><text fill="#000000" font-family="sans-serif" font-size="14" lengthAdjust="spacing" textLength="59" x="27" y="696.1697">colmillos</text><line style="stroke:#181818;stroke-width:0.5;" x1="8" x2="139" y1="704.2717" y2="704.2717"/><ellipse cx="18" cy="719.3056" fill="#84BE84" rx="3" ry="3" style="stroke:#038048;stroke-width:1.0;"/><text fill="#000000" font-family="sans-serif" font-size="14" lengthAdjust="spacing" textLength="50" x="27" y="723.2376">comer()</text><ellipse cx="18" cy="738.3735" fill="#84BE84" rx="3" ry="3" style="stroke:#038048;stroke-width:1.0;"/><text fill="#000000" font-family="sans-serif" font-size="14" lengthAdjust="spacing" textLength="107" x="27" y="742.3055">romperHuesos()</text><ellipse cx="18" cy="757.4415" fill="#84BE84" rx="3" ry="3" style="stroke:#038048;stroke-width:1.0;"/><text fill="#000000" font-family="sans-serif" font-size="14" lengthAdjust="spacing" textLength="56" x="27" y="761.3734">mamar()</text></g><!--class Humano--><g id="elem_Humano"><rect codeLine="45" fill="#F1F1F1" height="200.5433" id="Humano" rx="2.5" ry="2.5" style="stroke:#181818;stroke-width:0.5;" width="133" x="175" y="578"/><ellipse cx="209.8" cy="594" fill="#ADD1B2" rx="11" ry="11" style="stroke:#181818;stroke-width:1.0;"/><path d="M212.7688,599.6406 Q212.1906,599.9375 211.55,600.0781 Q210.9094,600.2344 210.2063,600.2344 Q207.7063,600.2344 206.3781,598.5938 Q205.0656,596.9375 205.0656,593.8125 Q205.0656,590.6875 206.3781,589.0313 Q207.7063,587.375 210.2063,587.375 Q210.9094,587.375 211.55,587.5313 Q212.2063,587.6875 212.7688,587.9844 L212.7688,590.7031 Q212.1438,590.125 211.55,589.8594 Q210.9563,589.5781 210.3313,589.5781 Q208.9875,589.5781 208.3,590.6563 Q207.6125,591.7188 207.6125,593.8125 Q207.6125,595.9063 208.3,596.9844 Q208.9875,598.0469 210.3313,598.0469 Q210.9563,598.0469 211.55,597.7813 Q212.1438,597.5 212.7688,596.9219 L212.7688,599.6406 Z " fill="#000000"/><text fill="#000000" font-family="sans-serif" font-size="14" lengthAdjust="spacing" textLength="57" x="228.2" y="599.432">Humano</text><line style="stroke:#181818;stroke-width:0.5;" x1="176" x2="307" y1="610" y2="610"/><rect fill="none" height="6" style="stroke:#C82930;stroke-width:1.0;" width="6" x="183" y="622.034"/><text fill="#000000" font-family="sans-serif" font-size="14" lengthAdjust="spacing" textLength="47" x="195" y="628.9659">celulas</text><rect fill="none" height="6" style="stroke:#C82930;stroke-width:1.0;" width="6" x="183" y="641.1019"/><text fill="#000000" font-family="sans-serif" font-size="14" lengthAdjust="spacing" textLength="48" x="195" y="648.0339">huesos</text><rect fill="none" height="6" style="stroke:#C82930;stroke-width:1.0;" width="6" x="183" y="660.1698"/><text fill="#000000" font-family="sans-serif" font-size="14" lengthAdjust="spacing" textLength="40" x="195" y="667.1018">labios</text><rect fill="none" height="6" style="stroke:#C82930;stroke-width:1.0;" width="6" x="183" y="679.2377"/><text fill="#000000" font-family="sans-serif" font-size="14" lengthAdjust="spacing" textLength="65" x="195" y="686.1697">raciocinio</text><line style="stroke:#181818;stroke-width:0.5;" x1="176" x2="307" y1="694.2717" y2="694.2717"/><ellipse cx="186" cy="709.3056" fill="#84BE84" rx="3" ry="3" style="stroke:#038048;stroke-width:1.0;"/><text fill="#000000" font-family="sans-serif" font-size="14" lengthAdjust="spacing" textLength="50" x="195" y="713.2376">comer()</text><ellipse cx="186" cy="728.3735" fill="#84BE84" rx="3" ry="3" style="stroke:#038048;stroke-width:1.0;"/><text fill="#000000" font-family="sans-serif" font-size="14" lengthAdjust="spacing" textLength="107" x="195" y="732.3055">romperHuesos()</text><ellipse cx="186" cy="747.4415" fill="#84BE84" rx="3" ry="3" style="stroke:#038048;stroke-width:1.0;"/><text fill="#000000" font-family="sans-serif" font-size="14" lengthAdjust="spacing" textLength="56" x="195" y="751.3734">mamar()</text><ellipse cx="186" cy="766.5094" fill="#84BE84" rx="3" ry="3" style="stroke:#038048;stroke-width:1.0;"/><text fill="#000000" font-family="sans-serif" font-size="14" lengthAdjust="spacing" textLength="55" x="195" y="770.4414">pensar()</text></g><!--class Ornitorrinco--><g id="elem_Ornitorrinco"><rect codeLine="55" fill="#F1F1F1" height="181.4754" id="Ornitorrinco" rx="2.5" ry="2.5" style="stroke:#181818;stroke-width:0.5;" width="133" x="343" y="588"/><ellipse cx="366.1" cy="604" fill="#ADD1B2" rx="11" ry="11" style="stroke:#181818;stroke-width:1.0;"/><path d="M369.0688,609.6406 Q368.4906,609.9375 367.85,610.0781 Q367.2094,610.2344 366.5063,610.2344 Q364.0063,610.2344 362.6781,608.5938 Q361.3656,606.9375 361.3656,603.8125 Q361.3656,600.6875 362.6781,599.0313 Q364.0063,597.375 366.5063,597.375 Q367.2094,597.375 367.85,597.5313 Q368.5063,597.6875 369.0688,597.9844 L369.0688,600.7031 Q368.4438,600.125 367.85,599.8594 Q367.2563,599.5781 366.6313,599.5781 Q365.2875,599.5781 364.6,600.6563 Q363.9125,601.7188 363.9125,603.8125 Q363.9125,605.9063 364.6,606.9844 Q365.2875,608.0469 366.6313,608.0469 Q367.2563,608.0469 367.85,607.7813 Q368.4438,607.5 369.0688,606.9219 L369.0688,609.6406 Z " fill="#000000"/><text fill="#000000" font-family="sans-serif" font-size="14" lengthAdjust="spacing" textLength="83" x="381.9" y="609.432">Ornitorrinco</text><line style="stroke:#181818;stroke-width:0.5;" x1="344" x2="475" y1="620" y2="620"/><rect fill="none" height="6" style="stroke:#C82930;stroke-width:1.0;" width="6" x="351" y="632.034"/><text fill="#000000" font-family="sans-serif" font-size="14" lengthAdjust="spacing" textLength="47" x="363" y="638.9659">celulas</text><rect fill="none" height="6" style="stroke:#C82930;stroke-width:1.0;" width="6" x="351" y="651.1019"/><text fill="#000000" font-family="sans-serif" font-size="14" lengthAdjust="spacing" textLength="48" x="363" y="658.0339">huesos</text><rect fill="none" height="6" style="stroke:#C82930;stroke-width:1.0;" width="6" x="351" y="670.1698"/><text fill="#000000" font-family="sans-serif" font-size="14" lengthAdjust="spacing" textLength="28" x="363" y="677.1018">pico</text><line style="stroke:#181818;stroke-width:0.5;" x1="344" x2="475" y1="685.2038" y2="685.2038"/><ellipse cx="354" cy="700.2377" fill="#84BE84" rx="3" ry="3" style="stroke:#038048;stroke-width:1.0;"/><text fill="#000000" font-family="sans-serif" font-size="14" lengthAdjust="spacing" textLength="50" x="363" y="704.1697">comer()</text><ellipse cx="354" cy="719.3056" fill="#84BE84" rx="3" ry="3" style="stroke:#038048;stroke-width:1.0;"/><text fill="#000000" font-family="sans-serif" font-size="14" lengthAdjust="spacing" textLength="107" x="363" y="723.2376">romperHuesos()</text><ellipse cx="354" cy="738.3735" fill="#84BE84" rx="3" ry="3" style="stroke:#038048;stroke-width:1.0;"/><text fill="#000000" font-family="sans-serif" font-size="14" lengthAdjust="spacing" textLength="97" x="363" y="742.3055">ponerHuevos()</text><ellipse cx="354" cy="757.4415" fill="#84BE84" rx="3" ry="3" style="stroke:#038048;stroke-width:1.0;"/><text fill="#000000" font-family="sans-serif" font-size="14" lengthAdjust="spacing" textLength="56" x="363" y="761.3734">mamar()</text></g><!--reverse link Animal to Vertebrado--><g id="link_Animal_Vertebrado"><path codeLine="65" d="M377.4193,109.5192 C368.4193,127.6292 365.75,133 355.92,152.78 " fill="none" id="Animal-backto-Vertebrado" style="stroke:#181818;stroke-width:1.0;"/><polygon fill="none" points="385.43,93.4,372.0463,106.849,382.7924,112.1894,385.43,93.4" style="stroke:#181818;stroke-width:1.0;"/></g><!--reverse link Animal to Invertebrado--><g id="link_Animal_Invertebrado"><path codeLine="66" d="M435.5798,109.5197 C447.5798,133.6697 454.55,147.7 466.54,171.81 " fill="none" id="Animal-backto-Invertebrado" style="stroke:#181818;stroke-width:1.0;"/><polygon fill="none" points="427.57,93.4,430.2065,112.1896,440.953,106.8497,427.57,93.4" style="stroke:#181818;stroke-width:1.0;"/></g><!--reverse link Vertebrado to Mamifero--><g id="link_Vertebrado_Mamifero"><path codeLine="67" d="M294.421,293.889 C285.801,315.499 282.64,323.41 273.48,346.35 " fill="none" id="Vertebrado-backto-Mamifero" style="stroke:#181818;stroke-width:1.0;"/><polygon fill="none" points="301.09,277.17,288.848,291.666,299.994,296.112,301.09,277.17" style="stroke:#181818;stroke-width:1.0;"/></g><!--reverse link Vertebrado to Ave--><g id="link_Vertebrado_Ave"><path codeLine="68" d="M356.5827,293.8875 C364.0427,312.5775 365.73,316.82 373.78,336.99 " fill="none" id="Vertebrado-backto-Ave" style="stroke:#181818;stroke-width:1.0;"/><polygon fill="none" points="349.91,277.17,351.0102,296.1117,362.1552,291.6633,349.91,277.17" style="stroke:#181818;stroke-width:1.0;"/></g><!--reverse link Mamifero to Canino--><g id="link_Mamifero_Canino"><path codeLine="69" d="M177.3485,523.5786 C160.2685,548.8786 151.37,562.08 133.89,588 " fill="none" id="Mamifero-backto-Canino" style="stroke:#181818;stroke-width:1.0;"/><polygon fill="none" points="187.42,508.66,172.3756,520.2214,182.3213,526.9358,187.42,508.66" style="stroke:#181818;stroke-width:1.0;"/></g><!--reverse link Mamifero to Humano--><g id="link_Mamifero_Humano"><path codeLine="70" d="M241.5,526.66 C241.5,548.69 241.5,554.86 241.5,577.85 " fill="none" id="Mamifero-backto-Humano" style="stroke:#181818;stroke-width:1.0;"/><polygon fill="none" points="241.5,508.66,235.5,526.66,247.5,526.66,241.5,508.66" style="stroke:#181818;stroke-width:1.0;"/></g><!--reverse link Mamifero to Ornitorrinco--><g id="link_Mamifero_Ornitorrinco"><path codeLine="71" d="M305.6515,523.5786 C322.7315,548.8786 331.63,562.08 349.11,588 " fill="none" id="Mamifero-backto-Ornitorrinco" style="stroke:#181818;stroke-width:1.0;"/><polygon fill="none" points="295.58,508.66,300.6787,526.9358,310.6244,520.2214,295.58,508.66" style="stroke:#181818;stroke-width:1.0;"/></g><!--reverse link Ave to Ornitorrinco--><g id="link_Ave_Ornitorrinco"><path codeLine="72" d="M409.5,536.04 C409.5,558.77 409.5,565.19 409.5,587.92 " fill="none" id="Ave-backto-Ornitorrinco" style="stroke:#181818;stroke-width:1.0;"/><polygon fill="none" points="409.5,518.04,403.5,536.04,415.5,536.04,409.5,518.04" style="stroke:#181818;stroke-width:1.0;"/></g><!--SRC=[bLBBJWCn3BpdAtm4hV87N2ekvO2uSNTJerfAx9Nt8I7Wtrco1NbRjeNhZ3FZSUR0UuAk9oFjNriA8MNiEjW85ynl8KAYF4nGQ21f8Rkv3H_7cMUoddQ6UmK_6E4mKAV-HGEcfINRLi99FCZukuXtEyu-Ok4NiXMp21btVDcrWO85VOJDI6joBIUzB3PgnfbgLIepBiBTex3KTTUtdQmr5yxvlvjlXu9oxHOH31DhOc7zc_oKXQHRE3sPSAzcB6abpFLJBG_aquIvQN3t7gDhr0BsBGckTPNyhiKPCVrj-EbCHUOFEG7dGvw0FdFuAiaP-Wa0]--></g></svg>